%TF.GenerationSoftware,KiCad,Pcbnew,10.0.3*%
%TF.CreationDate,2026-08-10T16:00:57-07:00*%
%TF.ProjectId,sh0rtwave_pcb,73683072-7477-4617-9665-5f7063622e6b,rev?*%
%TF.SameCoordinates,Original*%
%TF.FileFunction,Copper,L1,Top*%
%TF.FilePolarity,Positive*%
%FSLAX46Y46*%
G04 Gerber Fmt 4.6, Leading zero omitted, Abs format (unit mm)*
G04 Created by KiCad (PCBNEW 10.0.3) date 2026-08-10 16:00:57*
%MOMM*%
%LPD*%
G01*
G04 APERTURE LIST*
G04 Aperture macros list*
%AMRoundRect*
0 Rectangle with rounded corners*
0 $1 Rounding radius*
0 $2 $3 $4 $5 $6 $7 $8 $9 X,Y pos of 4 corners*
0 Add a 4 corners polygon primitive as box body*
4,1,4,$2,$3,$4,$5,$6,$7,$8,$9,$2,$3,0*
0 Add four circle primitives for the rounded corners*
1,1,$1+$1,$2,$3*
1,1,$1+$1,$4,$5*
1,1,$1+$1,$6,$7*
1,1,$1+$1,$8,$9*
0 Add four rect primitives between the rounded corners*
20,1,$1+$1,$2,$3,$4,$5,0*
20,1,$1+$1,$4,$5,$6,$7,0*
20,1,$1+$1,$6,$7,$8,$9,0*
20,1,$1+$1,$8,$9,$2,$3,0*%
G04 Aperture macros list end*
%TA.AperFunction,ComponentPad*%
%ADD10RoundRect,0.250000X-0.625000X0.350000X-0.625000X-0.350000X0.625000X-0.350000X0.625000X0.350000X0*%
%TD*%
%TA.AperFunction,ComponentPad*%
%ADD11O,1.750000X1.200000*%
%TD*%
%TA.AperFunction,ComponentPad*%
%ADD12C,1.600000*%
%TD*%
%TA.AperFunction,ComponentPad*%
%ADD13RoundRect,0.250000X-0.550000X-0.550000X0.550000X-0.550000X0.550000X0.550000X-0.550000X0.550000X0*%
%TD*%
%TA.AperFunction,ComponentPad*%
%ADD14R,1.508000X1.508000*%
%TD*%
%TA.AperFunction,ComponentPad*%
%ADD15C,1.508000*%
%TD*%
%TA.AperFunction,ComponentPad*%
%ADD16R,1.700000X1.700000*%
%TD*%
%TA.AperFunction,ComponentPad*%
%ADD17C,1.700000*%
%TD*%
%TA.AperFunction,ComponentPad*%
%ADD18C,1.530000*%
%TD*%
%TA.AperFunction,ComponentPad*%
%ADD19C,3.556000*%
%TD*%
%TA.AperFunction,Conductor*%
%ADD20C,0.200000*%
%TD*%
G04 APERTURE END LIST*
D10*
%TO.P,5v in,1*%
%TO.N,N/C*%
X125000000Y-88000000D03*
D11*
%TO.P,5v in,2*%
X125000000Y-90000000D03*
%TD*%
D12*
%TO.P,100uF,2*%
%TO.N,N/C*%
X100000000Y-65500000D03*
D13*
%TO.P,100uF,1*%
X96500000Y-65500000D03*
%TD*%
D12*
%TO.P,1k,1*%
%TO.N,N/C*%
X92500000Y-67000000D03*
%TO.P,1k,2*%
X92500000Y-56840000D03*
%TD*%
D14*
%TO.P,ESP32 S3,1*%
%TO.N,N/C*%
X104405000Y-54300000D03*
D15*
%TO.P,ESP32 S3,2*%
X104405000Y-56840000D03*
%TO.P,ESP32 S3,3*%
X104405000Y-59380000D03*
%TO.P,ESP32 S3,4*%
X104405000Y-61920000D03*
%TO.P,ESP32 S3,5*%
X104405000Y-64460000D03*
%TO.P,ESP32 S3,6*%
X104405000Y-67000000D03*
%TO.P,ESP32 S3,7*%
X104405000Y-69540000D03*
%TO.P,ESP32 S3,8*%
X119645000Y-69540000D03*
%TO.P,ESP32 S3,9*%
X119645000Y-67000000D03*
%TO.P,ESP32 S3,10*%
X119645000Y-64460000D03*
%TO.P,ESP32 S3,11*%
X119645000Y-61920000D03*
%TO.P,ESP32 S3,12*%
X119645000Y-59380000D03*
%TO.P,ESP32 S3,13*%
X119645000Y-56840000D03*
%TO.P,ESP32 S3,14*%
X119645000Y-54300000D03*
%TD*%
D16*
%TO.P,INP441,1*%
%TO.N,N/C*%
X100000000Y-82920000D03*
D17*
%TO.P,INP441,2*%
X100000000Y-85460000D03*
%TO.P,INP441,3*%
X100000000Y-88000000D03*
%TO.P,INP441,4*%
X100000000Y-90540000D03*
%TO.P,INP441,5*%
X100000000Y-93080000D03*
%TD*%
D12*
%TO.P,10,1*%
%TO.N,N/C*%
X93500000Y-70340000D03*
%TO.P,10,2*%
X93500000Y-80500000D03*
%TD*%
D16*
%TO.P,LED,1*%
%TO.N,N/C*%
X124000000Y-58500000D03*
D17*
%TO.P,LED,2*%
X124000000Y-61040000D03*
%TD*%
D18*
%TO.P,MAX98357,JP1_1*%
%TO.N,N/C*%
X104420000Y-77500000D03*
%TO.P,MAX98357,JP1_2*%
X106960000Y-77500000D03*
%TO.P,MAX98357,JP1_3*%
X109500000Y-77500000D03*
%TO.P,MAX98357,JP1_4*%
X112040000Y-77500000D03*
%TO.P,MAX98357,JP1_5*%
X114580000Y-77500000D03*
%TO.P,MAX98357,JP1_6*%
X117120000Y-77500000D03*
%TO.P,MAX98357,JP1_7*%
X119660000Y-77500000D03*
D19*
%TO.P,MAX98357,MH1*%
X118390000Y-91470000D03*
%TO.P,MAX98357,MH2*%
X105690000Y-91470000D03*
D18*
%TO.P,MAX98357,X1_1*%
X113840000Y-90454000D03*
%TO.P,MAX98357,X1_2*%
X110340000Y-90454000D03*
%TD*%
D16*
%TO.P,BTN,1*%
%TO.N,N/C*%
X99907897Y-53827897D03*
D17*
%TO.P,BTN,2*%
X99907897Y-56367897D03*
%TD*%
D12*
%TO.P,100nF,1*%
%TO.N,N/C*%
X93500000Y-83000000D03*
%TO.P,100nF,2*%
X93500000Y-88000000D03*
%TD*%
%TO.P,330,1*%
%TO.N,N/C*%
X124000000Y-65855000D03*
%TO.P,330,2*%
X124000000Y-76015000D03*
%TD*%
%TO.N,*%
D20*
X117500000Y-74000000D02*
X118000000Y-73500000D01*
X118000000Y-61000000D02*
X118025000Y-61000000D01*
X106500000Y-59000000D02*
X106500000Y-72500000D01*
X106500000Y-72500000D02*
X108000000Y-74000000D01*
X108000000Y-74000000D02*
X117500000Y-74000000D01*
X118000000Y-73500000D02*
X118000000Y-61000000D01*
X106500000Y-59000000D02*
X106500000Y-54000000D01*
X118025000Y-61000000D02*
X119645000Y-59380000D01*
X106500000Y-59380000D02*
X106500000Y-59000000D01*
X106500000Y-54000000D02*
X105500000Y-53000000D01*
X105500000Y-53000000D02*
X103000000Y-53000000D01*
X103000000Y-53000000D02*
X102172103Y-53827897D01*
X102172103Y-53827897D02*
X99907897Y-53827897D01*
X104405000Y-56840000D02*
X106000000Y-58435000D01*
X106000000Y-72500000D02*
X108000000Y-74500000D01*
X108000000Y-74500000D02*
X114000000Y-74500000D01*
X114000000Y-74500000D02*
X114580000Y-75080000D01*
X106000000Y-58435000D02*
X106000000Y-72500000D01*
X114580000Y-75080000D02*
X114580000Y-77500000D01*
X121000000Y-60735000D02*
X121000000Y-79000000D01*
X122000000Y-55000000D02*
X122000000Y-79000000D01*
X103500000Y-85500000D02*
X103460000Y-85460000D01*
X121300000Y-54300000D02*
X122000000Y-55000000D01*
X105500000Y-80000000D02*
X104420000Y-78920000D01*
X119645000Y-59380000D02*
X121000000Y-60735000D01*
X121500000Y-57840000D02*
X121500000Y-79000000D01*
X100425451Y-85472562D02*
X100428241Y-85483724D01*
X103000000Y-55800000D02*
X103000000Y-78000000D01*
X119740000Y-56840000D02*
X119820000Y-56920000D01*
X104500000Y-84500000D02*
X103500000Y-85500000D01*
X119740000Y-56825686D02*
X119782843Y-56782843D01*
X121500000Y-80500000D02*
X120000000Y-80500000D01*
X121000000Y-79000000D02*
X120000000Y-80000000D01*
X121500000Y-88500000D02*
X123000000Y-90000000D01*
X98000000Y-87000000D02*
X99000000Y-88000000D01*
X103000000Y-78000000D02*
X99500000Y-81500000D01*
X98000000Y-82000000D02*
X98000000Y-87000000D01*
X122000000Y-79000000D02*
X125000000Y-82000000D01*
X120150000Y-59380000D02*
X119645000Y-59380000D01*
X119740000Y-54300000D02*
X121300000Y-54300000D01*
X125000000Y-82000000D02*
X125000000Y-88000000D01*
X119680000Y-56900000D02*
X119086000Y-56900000D01*
X119086000Y-56900000D02*
X119086000Y-56840000D01*
X120350000Y-54500000D02*
X120230000Y-54380000D01*
X121500000Y-82000000D02*
X121500000Y-88500000D01*
X121500000Y-82000000D02*
X121500000Y-80500000D01*
X120000000Y-80500000D02*
X105500000Y-80500000D01*
X119740000Y-56840000D02*
X119740000Y-56825686D01*
X99500000Y-81500000D02*
X98500000Y-81500000D01*
X104500000Y-54300000D02*
X103000000Y-55800000D01*
X123000000Y-90000000D02*
X125000000Y-90000000D01*
X119820000Y-56920000D02*
X120230000Y-56920000D01*
X120000000Y-80000000D02*
X105500000Y-80000000D01*
X119580000Y-57000000D02*
X119740000Y-56840000D01*
X100428241Y-85483724D02*
X100257753Y-85767872D01*
X104420000Y-78920000D02*
X104420000Y-77500000D01*
X121500000Y-80500000D02*
X121500000Y-79000000D01*
X100257753Y-85767872D02*
X100087603Y-85810410D01*
X104500000Y-81500000D02*
X104500000Y-84500000D01*
X105500000Y-80500000D02*
X104500000Y-81500000D01*
X100478013Y-85420000D02*
X100425451Y-85472562D01*
X119740000Y-56840000D02*
X120500000Y-56840000D01*
X99000000Y-88000000D02*
X100000000Y-88000000D01*
X119740000Y-56840000D02*
X119680000Y-56900000D01*
X98500000Y-81500000D02*
X98000000Y-82000000D01*
X119660000Y-77500000D02*
X119740000Y-77420000D01*
X119740000Y-56840000D02*
X119086000Y-56840000D01*
X103460000Y-85460000D02*
X100000000Y-85460000D01*
X120500000Y-56840000D02*
X121500000Y-57840000D01*
X125000000Y-88000000D02*
X125500000Y-87500000D01*
%TD*%
M02*
