M48
; DRILL file KiCad 10.0.3 date 2026-08-10T16:00:54
; FORMAT={-:-/ absolute / metric / decimal}
; #@! TF.CreationDate,2026-08-10T16:00:54-07:00
; #@! TF.GenerationSoftware,Kicad,Pcbnew,10.0.3
; #@! TF.FileFunction,Plated,1,2,PTH
FMAT,2
METRIC
; #@! TA.AperFunction,Plated,PTH,ComponentDrill
T1C0.750
; #@! TA.AperFunction,Plated,PTH,ComponentDrill
T2C0.800
; #@! TA.AperFunction,Plated,PTH,ComponentDrill
T3C1.000
; #@! TA.AperFunction,Plated,PTH,ComponentDrill
T4C1.020
; #@! TA.AperFunction,Plated,PTH,ComponentDrill
T5C2.540
%
G90
G05
T1
X125.0Y-88.0
X125.0Y-90.0
T2
X92.5Y-56.84
X92.5Y-67.0
X93.5Y-70.34
X93.5Y-80.5
X93.5Y-83.0
X93.5Y-88.0
X96.5Y-65.5
X100.0Y-65.5
X124.0Y-65.855
X124.0Y-76.015
T3
X99.908Y-53.828
X99.908Y-56.368
X100.0Y-82.92
X100.0Y-85.46
X100.0Y-88.0
X100.0Y-90.54
X100.0Y-93.08
X104.405Y-54.3
X104.405Y-56.84
X104.405Y-59.38
X104.405Y-61.92
X104.405Y-64.46
X104.405Y-67.0
X104.405Y-69.54
X119.645Y-54.3
X119.645Y-56.84
X119.645Y-59.38
X119.645Y-61.92
X119.645Y-64.46
X119.645Y-67.0
X119.645Y-69.54
X124.0Y-58.5
X124.0Y-61.04
T4
X104.42Y-77.5
X106.96Y-77.5
X109.5Y-77.5
X110.34Y-90.454
X112.04Y-77.5
X113.84Y-90.454
X114.58Y-77.5
X117.12Y-77.5
X119.66Y-77.5
T5
X105.69Y-91.47
X118.39Y-91.47
M30
