M48
; DRILL file KiCad 10.0.3 date 2026-06-13T15:00:31
; FORMAT={-:-/ absolute / metric / decimal}
; #@! TF.CreationDate,2026-06-13T15:00:31-07:00
; #@! TF.GenerationSoftware,Kicad,Pcbnew,10.0.3
; #@! TF.FileFunction,Plated,1,2,PTH
FMAT,2
METRIC
; #@! TA.AperFunction,Plated,PTH,ComponentDrill
T1C0.750
; #@! TA.AperFunction,Plated,PTH,ComponentDrill
T2C0.800
; #@! TA.AperFunction,Plated,PTH,ComponentDrill
T3C1.000
%
G90
G05
T1
X121.96Y-50.5
X123.23Y-50.5
X124.5Y-50.5
T2
X110.38Y-40.46
X110.38Y-43.0
X110.38Y-45.54
X110.38Y-48.08
X110.38Y-50.62
X110.38Y-53.16
X110.38Y-55.7
X110.38Y-58.24
X110.38Y-60.78
X118.0Y-40.46
X118.0Y-43.0
X118.0Y-45.54
X118.0Y-48.08
X118.0Y-50.62
X118.0Y-53.16
X118.0Y-55.7
X118.0Y-58.24
X118.0Y-60.78
X121.0Y-41.5
X121.0Y-44.5
X131.16Y-41.5
X131.16Y-44.5
T3
X97.5Y-40.5
X97.5Y-43.04
X97.5Y-45.58
X97.5Y-48.12
X97.5Y-50.66
X97.5Y-53.2
X97.5Y-55.74
X97.5Y-58.28
X102.0Y-40.5
X102.0Y-43.04
X102.0Y-45.58
X102.0Y-48.12
X102.0Y-50.66
X102.0Y-53.2
X102.0Y-55.74
X102.0Y-58.28
X106.5Y-40.5
X106.5Y-43.04
X106.5Y-45.58
X106.5Y-48.12
X106.5Y-50.66
X106.5Y-53.2
X106.5Y-55.74
X106.5Y-58.28
X124.0Y-57.96
X124.0Y-60.5
X128.0Y-52.88
X128.0Y-55.42
X128.0Y-57.96
X128.0Y-60.5
X133.0Y-48.0
X133.0Y-50.54
M30
