%TF.GenerationSoftware,KiCad,Pcbnew,10.0.3*%
%TF.CreationDate,2026-06-13T15:00:34-07:00*%
%TF.ProjectId,Untitled,556e7469-746c-4656-942e-6b696361645f,rev?*%
%TF.SameCoordinates,Original*%
%TF.FileFunction,Legend,Top*%
%TF.FilePolarity,Positive*%
%FSLAX46Y46*%
G04 Gerber Fmt 4.6, Leading zero omitted, Abs format (unit mm)*
G04 Created by KiCad (PCBNEW 10.0.3) date 2026-06-13 15:00:34*
%MOMM*%
%LPD*%
G01*
G04 APERTURE LIST*
%ADD10C,0.150000*%
%ADD11C,0.120000*%
G04 APERTURE END LIST*
D10*
X103785714Y-58169104D02*
X104261904Y-58169104D01*
X103690476Y-58454819D02*
X104023809Y-57454819D01*
X104023809Y-57454819D02*
X104357142Y-58454819D01*
X104833333Y-57883390D02*
X104738095Y-57835771D01*
X104738095Y-57835771D02*
X104690476Y-57788152D01*
X104690476Y-57788152D02*
X104642857Y-57692914D01*
X104642857Y-57692914D02*
X104642857Y-57645295D01*
X104642857Y-57645295D02*
X104690476Y-57550057D01*
X104690476Y-57550057D02*
X104738095Y-57502438D01*
X104738095Y-57502438D02*
X104833333Y-57454819D01*
X104833333Y-57454819D02*
X105023809Y-57454819D01*
X105023809Y-57454819D02*
X105119047Y-57502438D01*
X105119047Y-57502438D02*
X105166666Y-57550057D01*
X105166666Y-57550057D02*
X105214285Y-57645295D01*
X105214285Y-57645295D02*
X105214285Y-57692914D01*
X105214285Y-57692914D02*
X105166666Y-57788152D01*
X105166666Y-57788152D02*
X105119047Y-57835771D01*
X105119047Y-57835771D02*
X105023809Y-57883390D01*
X105023809Y-57883390D02*
X104833333Y-57883390D01*
X104833333Y-57883390D02*
X104738095Y-57931009D01*
X104738095Y-57931009D02*
X104690476Y-57978628D01*
X104690476Y-57978628D02*
X104642857Y-58073866D01*
X104642857Y-58073866D02*
X104642857Y-58264342D01*
X104642857Y-58264342D02*
X104690476Y-58359580D01*
X104690476Y-58359580D02*
X104738095Y-58407200D01*
X104738095Y-58407200D02*
X104833333Y-58454819D01*
X104833333Y-58454819D02*
X105023809Y-58454819D01*
X105023809Y-58454819D02*
X105119047Y-58407200D01*
X105119047Y-58407200D02*
X105166666Y-58359580D01*
X105166666Y-58359580D02*
X105214285Y-58264342D01*
X105214285Y-58264342D02*
X105214285Y-58073866D01*
X105214285Y-58073866D02*
X105166666Y-57978628D01*
X105166666Y-57978628D02*
X105119047Y-57931009D01*
X105119047Y-57931009D02*
X105023809Y-57883390D01*
X103785714Y-55669104D02*
X104261904Y-55669104D01*
X103690476Y-55954819D02*
X104023809Y-54954819D01*
X104023809Y-54954819D02*
X104357142Y-55954819D01*
X104595238Y-54954819D02*
X105261904Y-54954819D01*
X105261904Y-54954819D02*
X104833333Y-55954819D01*
X103785714Y-53169104D02*
X104261904Y-53169104D01*
X103690476Y-53454819D02*
X104023809Y-52454819D01*
X104023809Y-52454819D02*
X104357142Y-53454819D01*
X105119047Y-52454819D02*
X104928571Y-52454819D01*
X104928571Y-52454819D02*
X104833333Y-52502438D01*
X104833333Y-52502438D02*
X104785714Y-52550057D01*
X104785714Y-52550057D02*
X104690476Y-52692914D01*
X104690476Y-52692914D02*
X104642857Y-52883390D01*
X104642857Y-52883390D02*
X104642857Y-53264342D01*
X104642857Y-53264342D02*
X104690476Y-53359580D01*
X104690476Y-53359580D02*
X104738095Y-53407200D01*
X104738095Y-53407200D02*
X104833333Y-53454819D01*
X104833333Y-53454819D02*
X105023809Y-53454819D01*
X105023809Y-53454819D02*
X105119047Y-53407200D01*
X105119047Y-53407200D02*
X105166666Y-53359580D01*
X105166666Y-53359580D02*
X105214285Y-53264342D01*
X105214285Y-53264342D02*
X105214285Y-53026247D01*
X105214285Y-53026247D02*
X105166666Y-52931009D01*
X105166666Y-52931009D02*
X105119047Y-52883390D01*
X105119047Y-52883390D02*
X105023809Y-52835771D01*
X105023809Y-52835771D02*
X104833333Y-52835771D01*
X104833333Y-52835771D02*
X104738095Y-52883390D01*
X104738095Y-52883390D02*
X104690476Y-52931009D01*
X104690476Y-52931009D02*
X104642857Y-53026247D01*
X103785714Y-50669104D02*
X104261904Y-50669104D01*
X103690476Y-50954819D02*
X104023809Y-49954819D01*
X104023809Y-49954819D02*
X104357142Y-50954819D01*
X105166666Y-49954819D02*
X104690476Y-49954819D01*
X104690476Y-49954819D02*
X104642857Y-50431009D01*
X104642857Y-50431009D02*
X104690476Y-50383390D01*
X104690476Y-50383390D02*
X104785714Y-50335771D01*
X104785714Y-50335771D02*
X105023809Y-50335771D01*
X105023809Y-50335771D02*
X105119047Y-50383390D01*
X105119047Y-50383390D02*
X105166666Y-50431009D01*
X105166666Y-50431009D02*
X105214285Y-50526247D01*
X105214285Y-50526247D02*
X105214285Y-50764342D01*
X105214285Y-50764342D02*
X105166666Y-50859580D01*
X105166666Y-50859580D02*
X105119047Y-50907200D01*
X105119047Y-50907200D02*
X105023809Y-50954819D01*
X105023809Y-50954819D02*
X104785714Y-50954819D01*
X104785714Y-50954819D02*
X104690476Y-50907200D01*
X104690476Y-50907200D02*
X104642857Y-50859580D01*
X103785714Y-48169104D02*
X104261904Y-48169104D01*
X103690476Y-48454819D02*
X104023809Y-47454819D01*
X104023809Y-47454819D02*
X104357142Y-48454819D01*
X105119047Y-47788152D02*
X105119047Y-48454819D01*
X104880952Y-47407200D02*
X104642857Y-48121485D01*
X104642857Y-48121485D02*
X105261904Y-48121485D01*
X103785714Y-45669104D02*
X104261904Y-45669104D01*
X103690476Y-45954819D02*
X104023809Y-44954819D01*
X104023809Y-44954819D02*
X104357142Y-45954819D01*
X104595238Y-44954819D02*
X105214285Y-44954819D01*
X105214285Y-44954819D02*
X104880952Y-45335771D01*
X104880952Y-45335771D02*
X105023809Y-45335771D01*
X105023809Y-45335771D02*
X105119047Y-45383390D01*
X105119047Y-45383390D02*
X105166666Y-45431009D01*
X105166666Y-45431009D02*
X105214285Y-45526247D01*
X105214285Y-45526247D02*
X105214285Y-45764342D01*
X105214285Y-45764342D02*
X105166666Y-45859580D01*
X105166666Y-45859580D02*
X105119047Y-45907200D01*
X105119047Y-45907200D02*
X105023809Y-45954819D01*
X105023809Y-45954819D02*
X104738095Y-45954819D01*
X104738095Y-45954819D02*
X104642857Y-45907200D01*
X104642857Y-45907200D02*
X104595238Y-45859580D01*
X103785714Y-43169104D02*
X104261904Y-43169104D01*
X103690476Y-43454819D02*
X104023809Y-42454819D01*
X104023809Y-42454819D02*
X104357142Y-43454819D01*
X104642857Y-42550057D02*
X104690476Y-42502438D01*
X104690476Y-42502438D02*
X104785714Y-42454819D01*
X104785714Y-42454819D02*
X105023809Y-42454819D01*
X105023809Y-42454819D02*
X105119047Y-42502438D01*
X105119047Y-42502438D02*
X105166666Y-42550057D01*
X105166666Y-42550057D02*
X105214285Y-42645295D01*
X105214285Y-42645295D02*
X105214285Y-42740533D01*
X105214285Y-42740533D02*
X105166666Y-42883390D01*
X105166666Y-42883390D02*
X104595238Y-43454819D01*
X104595238Y-43454819D02*
X105214285Y-43454819D01*
X100238095Y-38502438D02*
X100142857Y-38454819D01*
X100142857Y-38454819D02*
X100000000Y-38454819D01*
X100000000Y-38454819D02*
X99857143Y-38502438D01*
X99857143Y-38502438D02*
X99761905Y-38597676D01*
X99761905Y-38597676D02*
X99714286Y-38692914D01*
X99714286Y-38692914D02*
X99666667Y-38883390D01*
X99666667Y-38883390D02*
X99666667Y-39026247D01*
X99666667Y-39026247D02*
X99714286Y-39216723D01*
X99714286Y-39216723D02*
X99761905Y-39311961D01*
X99761905Y-39311961D02*
X99857143Y-39407200D01*
X99857143Y-39407200D02*
X100000000Y-39454819D01*
X100000000Y-39454819D02*
X100095238Y-39454819D01*
X100095238Y-39454819D02*
X100238095Y-39407200D01*
X100238095Y-39407200D02*
X100285714Y-39359580D01*
X100285714Y-39359580D02*
X100285714Y-39026247D01*
X100285714Y-39026247D02*
X100095238Y-39026247D01*
X100714286Y-39454819D02*
X100714286Y-38454819D01*
X100714286Y-38454819D02*
X101285714Y-39454819D01*
X101285714Y-39454819D02*
X101285714Y-38454819D01*
X101761905Y-39454819D02*
X101761905Y-38454819D01*
X101761905Y-38454819D02*
X102000000Y-38454819D01*
X102000000Y-38454819D02*
X102142857Y-38502438D01*
X102142857Y-38502438D02*
X102238095Y-38597676D01*
X102238095Y-38597676D02*
X102285714Y-38692914D01*
X102285714Y-38692914D02*
X102333333Y-38883390D01*
X102333333Y-38883390D02*
X102333333Y-39026247D01*
X102333333Y-39026247D02*
X102285714Y-39216723D01*
X102285714Y-39216723D02*
X102238095Y-39311961D01*
X102238095Y-39311961D02*
X102142857Y-39407200D01*
X102142857Y-39407200D02*
X102000000Y-39454819D01*
X102000000Y-39454819D02*
X101761905Y-39454819D01*
X103785714Y-40669104D02*
X104261904Y-40669104D01*
X103690476Y-40954819D02*
X104023809Y-39954819D01*
X104023809Y-39954819D02*
X104357142Y-40954819D01*
X105214285Y-40954819D02*
X104642857Y-40954819D01*
X104928571Y-40954819D02*
X104928571Y-39954819D01*
X104928571Y-39954819D02*
X104833333Y-40097676D01*
X104833333Y-40097676D02*
X104738095Y-40192914D01*
X104738095Y-40192914D02*
X104642857Y-40240533D01*
X96357142Y-38454819D02*
X95880952Y-38454819D01*
X95880952Y-38454819D02*
X95833333Y-38931009D01*
X95833333Y-38931009D02*
X95880952Y-38883390D01*
X95880952Y-38883390D02*
X95976190Y-38835771D01*
X95976190Y-38835771D02*
X96214285Y-38835771D01*
X96214285Y-38835771D02*
X96309523Y-38883390D01*
X96309523Y-38883390D02*
X96357142Y-38931009D01*
X96357142Y-38931009D02*
X96404761Y-39026247D01*
X96404761Y-39026247D02*
X96404761Y-39264342D01*
X96404761Y-39264342D02*
X96357142Y-39359580D01*
X96357142Y-39359580D02*
X96309523Y-39407200D01*
X96309523Y-39407200D02*
X96214285Y-39454819D01*
X96214285Y-39454819D02*
X95976190Y-39454819D01*
X95976190Y-39454819D02*
X95880952Y-39407200D01*
X95880952Y-39407200D02*
X95833333Y-39359580D01*
X96738095Y-38788152D02*
X96976190Y-39454819D01*
X96976190Y-39454819D02*
X97214285Y-38788152D01*
X132666666Y-45659819D02*
X132666666Y-46374104D01*
X132666666Y-46374104D02*
X132619047Y-46516961D01*
X132619047Y-46516961D02*
X132523809Y-46612200D01*
X132523809Y-46612200D02*
X132380952Y-46659819D01*
X132380952Y-46659819D02*
X132285714Y-46659819D01*
X133571428Y-45993152D02*
X133571428Y-46659819D01*
X133333333Y-45612200D02*
X133095238Y-46326485D01*
X133095238Y-46326485D02*
X133714285Y-46326485D01*
X125913333Y-39584819D02*
X125580000Y-39108628D01*
X125341905Y-39584819D02*
X125341905Y-38584819D01*
X125341905Y-38584819D02*
X125722857Y-38584819D01*
X125722857Y-38584819D02*
X125818095Y-38632438D01*
X125818095Y-38632438D02*
X125865714Y-38680057D01*
X125865714Y-38680057D02*
X125913333Y-38775295D01*
X125913333Y-38775295D02*
X125913333Y-38918152D01*
X125913333Y-38918152D02*
X125865714Y-39013390D01*
X125865714Y-39013390D02*
X125818095Y-39061009D01*
X125818095Y-39061009D02*
X125722857Y-39108628D01*
X125722857Y-39108628D02*
X125341905Y-39108628D01*
X126294286Y-38680057D02*
X126341905Y-38632438D01*
X126341905Y-38632438D02*
X126437143Y-38584819D01*
X126437143Y-38584819D02*
X126675238Y-38584819D01*
X126675238Y-38584819D02*
X126770476Y-38632438D01*
X126770476Y-38632438D02*
X126818095Y-38680057D01*
X126818095Y-38680057D02*
X126865714Y-38775295D01*
X126865714Y-38775295D02*
X126865714Y-38870533D01*
X126865714Y-38870533D02*
X126818095Y-39013390D01*
X126818095Y-39013390D02*
X126246667Y-39584819D01*
X126246667Y-39584819D02*
X126865714Y-39584819D01*
X125913333Y-42584819D02*
X125580000Y-42108628D01*
X125341905Y-42584819D02*
X125341905Y-41584819D01*
X125341905Y-41584819D02*
X125722857Y-41584819D01*
X125722857Y-41584819D02*
X125818095Y-41632438D01*
X125818095Y-41632438D02*
X125865714Y-41680057D01*
X125865714Y-41680057D02*
X125913333Y-41775295D01*
X125913333Y-41775295D02*
X125913333Y-41918152D01*
X125913333Y-41918152D02*
X125865714Y-42013390D01*
X125865714Y-42013390D02*
X125818095Y-42061009D01*
X125818095Y-42061009D02*
X125722857Y-42108628D01*
X125722857Y-42108628D02*
X125341905Y-42108628D01*
X126865714Y-42584819D02*
X126294286Y-42584819D01*
X126580000Y-42584819D02*
X126580000Y-41584819D01*
X126580000Y-41584819D02*
X126484762Y-41727676D01*
X126484762Y-41727676D02*
X126389524Y-41822914D01*
X126389524Y-41822914D02*
X126294286Y-41870533D01*
X123134761Y-47490057D02*
X123039523Y-47442438D01*
X123039523Y-47442438D02*
X122944285Y-47347200D01*
X122944285Y-47347200D02*
X122801428Y-47204342D01*
X122801428Y-47204342D02*
X122706190Y-47156723D01*
X122706190Y-47156723D02*
X122610952Y-47156723D01*
X122658571Y-47394819D02*
X122563333Y-47347200D01*
X122563333Y-47347200D02*
X122468095Y-47251961D01*
X122468095Y-47251961D02*
X122420476Y-47061485D01*
X122420476Y-47061485D02*
X122420476Y-46728152D01*
X122420476Y-46728152D02*
X122468095Y-46537676D01*
X122468095Y-46537676D02*
X122563333Y-46442438D01*
X122563333Y-46442438D02*
X122658571Y-46394819D01*
X122658571Y-46394819D02*
X122849047Y-46394819D01*
X122849047Y-46394819D02*
X122944285Y-46442438D01*
X122944285Y-46442438D02*
X123039523Y-46537676D01*
X123039523Y-46537676D02*
X123087142Y-46728152D01*
X123087142Y-46728152D02*
X123087142Y-47061485D01*
X123087142Y-47061485D02*
X123039523Y-47251961D01*
X123039523Y-47251961D02*
X122944285Y-47347200D01*
X122944285Y-47347200D02*
X122849047Y-47394819D01*
X122849047Y-47394819D02*
X122658571Y-47394819D01*
X124039523Y-47394819D02*
X123468095Y-47394819D01*
X123753809Y-47394819D02*
X123753809Y-46394819D01*
X123753809Y-46394819D02*
X123658571Y-46537676D01*
X123658571Y-46537676D02*
X123563333Y-46632914D01*
X123563333Y-46632914D02*
X123468095Y-46680533D01*
X123666666Y-55034819D02*
X123666666Y-55749104D01*
X123666666Y-55749104D02*
X123619047Y-55891961D01*
X123619047Y-55891961D02*
X123523809Y-55987200D01*
X123523809Y-55987200D02*
X123380952Y-56034819D01*
X123380952Y-56034819D02*
X123285714Y-56034819D01*
X124047619Y-55034819D02*
X124666666Y-55034819D01*
X124666666Y-55034819D02*
X124333333Y-55415771D01*
X124333333Y-55415771D02*
X124476190Y-55415771D01*
X124476190Y-55415771D02*
X124571428Y-55463390D01*
X124571428Y-55463390D02*
X124619047Y-55511009D01*
X124619047Y-55511009D02*
X124666666Y-55606247D01*
X124666666Y-55606247D02*
X124666666Y-55844342D01*
X124666666Y-55844342D02*
X124619047Y-55939580D01*
X124619047Y-55939580D02*
X124571428Y-55987200D01*
X124571428Y-55987200D02*
X124476190Y-56034819D01*
X124476190Y-56034819D02*
X124190476Y-56034819D01*
X124190476Y-56034819D02*
X124095238Y-55987200D01*
X124095238Y-55987200D02*
X124047619Y-55939580D01*
X127666666Y-49954819D02*
X127666666Y-50669104D01*
X127666666Y-50669104D02*
X127619047Y-50811961D01*
X127619047Y-50811961D02*
X127523809Y-50907200D01*
X127523809Y-50907200D02*
X127380952Y-50954819D01*
X127380952Y-50954819D02*
X127285714Y-50954819D01*
X128095238Y-50050057D02*
X128142857Y-50002438D01*
X128142857Y-50002438D02*
X128238095Y-49954819D01*
X128238095Y-49954819D02*
X128476190Y-49954819D01*
X128476190Y-49954819D02*
X128571428Y-50002438D01*
X128571428Y-50002438D02*
X128619047Y-50050057D01*
X128619047Y-50050057D02*
X128666666Y-50145295D01*
X128666666Y-50145295D02*
X128666666Y-50240533D01*
X128666666Y-50240533D02*
X128619047Y-50383390D01*
X128619047Y-50383390D02*
X128047619Y-50954819D01*
X128047619Y-50954819D02*
X128666666Y-50954819D01*
X113856666Y-37584819D02*
X113856666Y-38299104D01*
X113856666Y-38299104D02*
X113809047Y-38441961D01*
X113809047Y-38441961D02*
X113713809Y-38537200D01*
X113713809Y-38537200D02*
X113570952Y-38584819D01*
X113570952Y-38584819D02*
X113475714Y-38584819D01*
X114856666Y-38584819D02*
X114285238Y-38584819D01*
X114570952Y-38584819D02*
X114570952Y-37584819D01*
X114570952Y-37584819D02*
X114475714Y-37727676D01*
X114475714Y-37727676D02*
X114380476Y-37822914D01*
X114380476Y-37822914D02*
X114285238Y-37870533D01*
%TO.C,GND*%
D11*
X100620000Y-39120000D02*
X102000000Y-39120000D01*
X100620000Y-40500000D02*
X100620000Y-39120000D01*
X100620000Y-41770000D02*
X100620000Y-59660000D01*
X100620000Y-41770000D02*
X103380000Y-41770000D01*
X100620000Y-59660000D02*
X103380000Y-59660000D01*
X103380000Y-41770000D02*
X103380000Y-59660000D01*
%TO.C,A1*%
X105120000Y-39120000D02*
X106500000Y-39120000D01*
X105120000Y-40500000D02*
X105120000Y-39120000D01*
X105120000Y-41770000D02*
X105120000Y-59660000D01*
X105120000Y-41770000D02*
X107880000Y-41770000D01*
X105120000Y-59660000D02*
X107880000Y-59660000D01*
X107880000Y-41770000D02*
X107880000Y-59660000D01*
%TO.C,5v*%
X96120000Y-39120000D02*
X97500000Y-39120000D01*
X96120000Y-40500000D02*
X96120000Y-39120000D01*
X96120000Y-41770000D02*
X96120000Y-59660000D01*
X96120000Y-41770000D02*
X98880000Y-41770000D01*
X96120000Y-59660000D02*
X98880000Y-59660000D01*
X98880000Y-41770000D02*
X98880000Y-59660000D01*
%TO.C,J4*%
X131620000Y-46620000D02*
X133000000Y-46620000D01*
X131620000Y-48000000D02*
X131620000Y-46620000D01*
X131620000Y-49270000D02*
X131620000Y-51920000D01*
X131620000Y-49270000D02*
X134380000Y-49270000D01*
X131620000Y-51920000D02*
X134380000Y-51920000D01*
X134380000Y-49270000D02*
X134380000Y-51920000D01*
%TO.C,R2*%
X122040000Y-41500000D02*
X122810000Y-41500000D01*
X130120000Y-41500000D02*
X129350000Y-41500000D01*
X122810000Y-40130000D02*
X129350000Y-40130000D01*
X129350000Y-42870000D01*
X122810000Y-42870000D01*
X122810000Y-40130000D01*
%TO.C,R1*%
X122040000Y-44500000D02*
X122810000Y-44500000D01*
X130120000Y-44500000D02*
X129350000Y-44500000D01*
X122810000Y-43130000D02*
X129350000Y-43130000D01*
X129350000Y-45870000D01*
X122810000Y-45870000D01*
X122810000Y-43130000D01*
%TO.C,Q1*%
X121430000Y-52350000D02*
X125030000Y-52350000D01*
X121391522Y-52338478D02*
G75*
G02*
X123230000Y-47899999I1838478J1838478D01*
G01*
X123230000Y-47900000D02*
G75*
G02*
X125068478Y-52338478I0J-2600000D01*
G01*
%TO.C,J3*%
X122620000Y-56580000D02*
X124000000Y-56580000D01*
X122620000Y-57960000D02*
X122620000Y-56580000D01*
X122620000Y-59230000D02*
X122620000Y-61880000D01*
X122620000Y-59230000D02*
X125380000Y-59230000D01*
X122620000Y-61880000D02*
X125380000Y-61880000D01*
X125380000Y-59230000D02*
X125380000Y-61880000D01*
%TO.C,J2*%
X126620000Y-51500000D02*
X128000000Y-51500000D01*
X126620000Y-52880000D02*
X126620000Y-51500000D01*
X126620000Y-54150000D02*
X126620000Y-61880000D01*
X126620000Y-54150000D02*
X129380000Y-54150000D01*
X126620000Y-61880000D02*
X129380000Y-61880000D01*
X129380000Y-54150000D02*
X129380000Y-61880000D01*
%TO.C,J1*%
X111540000Y-39130000D02*
X111540000Y-62110000D01*
X111540000Y-62110000D02*
X116840000Y-62110000D01*
X113190000Y-39130000D02*
X111540000Y-39130000D01*
X116840000Y-39130000D02*
X115190000Y-39130000D01*
X116840000Y-62110000D02*
X116840000Y-39130000D01*
X115190000Y-39130000D02*
G75*
G02*
X113190000Y-39130000I-1000000J0D01*
G01*
%TD*%
M02*
