M48
; DRILL file KiCad 10.0.3 date 2026-05-31T21:12:19
; FORMAT={-:-/ absolute / metric / decimal}
; #@! TF.CreationDate,2026-05-31T21:12:19-07:00
; #@! TF.GenerationSoftware,Kicad,Pcbnew,10.0.3
; #@! TF.FileFunction,Plated,1,2,PTH
FMAT,2
METRIC
; #@! TA.AperFunction,Plated,PTH,ComponentDrill
T1C0.750
; #@! TA.AperFunction,Plated,PTH,ComponentDrill
T2C0.800
; #@! TA.AperFunction,Plated,PTH,ComponentDrill
T3C1.000
; #@! TA.AperFunction,Plated,PTH,ComponentDrill
T4C1.020
; #@! TA.AperFunction,Plated,PTH,ComponentDrill
T5C2.540
%
G90
G05
T1
X126.0Y-95.5
X126.0Y-97.5
T2
X83.908Y-67.592
X86.5Y-77.5
X86.5Y-82.5
X91.092Y-60.408
X94.0Y-74.92
X94.0Y-85.08
X96.0Y-69.0
X99.5Y-69.0
X126.0Y-65.855
X126.0Y-76.015
T3
X90.0Y-52.5
X90.0Y-55.04
X94.0Y-89.5
X94.0Y-92.04
X94.0Y-94.58
X94.0Y-97.12
X94.0Y-99.66
X104.5Y-54.3
X104.5Y-56.84
X104.5Y-59.38
X104.5Y-61.92
X104.5Y-64.46
X104.5Y-67.0
X104.5Y-69.54
X119.74Y-54.3
X119.74Y-56.84
X119.74Y-59.38
X119.74Y-61.92
X119.74Y-64.46
X119.74Y-67.0
X119.74Y-69.54
X126.0Y-58.5
X126.0Y-61.04
T4
X104.88Y-85.0
X107.42Y-85.0
X109.96Y-85.0
X110.8Y-97.954
X112.5Y-85.0
X114.3Y-97.954
X115.04Y-85.0
X117.58Y-85.0
X120.12Y-85.0
T5
X106.15Y-98.97
X118.85Y-98.97
M30
