%TF.GenerationSoftware,KiCad,Pcbnew,10.0.3*%
%TF.CreationDate,2026-06-12T22:54:13-07:00*%
%TF.ProjectId,sh0rtwave_pcb,73683072-7477-4617-9665-5f7063622e6b,rev?*%
%TF.SameCoordinates,Original*%
%TF.FileFunction,Soldermask,Top*%
%TF.FilePolarity,Negative*%
%FSLAX46Y46*%
G04 Gerber Fmt 4.6, Leading zero omitted, Abs format (unit mm)*
G04 Created by KiCad (PCBNEW 10.0.3) date 2026-06-12 22:54:13*
%MOMM*%
%LPD*%
G01*
G04 APERTURE LIST*
G04 Aperture macros list*
%AMRoundRect*
0 Rectangle with rounded corners*
0 $1 Rounding radius*
0 $2 $3 $4 $5 $6 $7 $8 $9 X,Y pos of 4 corners*
0 Add a 4 corners polygon primitive as box body*
4,1,4,$2,$3,$4,$5,$6,$7,$8,$9,$2,$3,0*
0 Add four circle primitives for the rounded corners*
1,1,$1+$1,$2,$3*
1,1,$1+$1,$4,$5*
1,1,$1+$1,$6,$7*
1,1,$1+$1,$8,$9*
0 Add four rect primitives between the rounded corners*
20,1,$1+$1,$2,$3,$4,$5,0*
20,1,$1+$1,$4,$5,$6,$7,0*
20,1,$1+$1,$6,$7,$8,$9,0*
20,1,$1+$1,$8,$9,$2,$3,0*%
G04 Aperture macros list end*
%ADD10C,1.600000*%
%ADD11C,1.700000*%
%ADD12R,1.700000X1.700000*%
%ADD13C,1.712000*%
%ADD14RoundRect,0.102000X-0.754000X-0.754000X0.754000X-0.754000X0.754000X0.754000X-0.754000X0.754000X0*%
%ADD15C,1.734000*%
%ADD16C,3.760000*%
%ADD17RoundRect,0.250000X-0.625000X0.350000X-0.625000X-0.350000X0.625000X-0.350000X0.625000X0.350000X0*%
%ADD18O,1.750000X1.200000*%
%ADD19RoundRect,0.250000X-0.550000X-0.550000X0.550000X-0.550000X0.550000X0.550000X-0.550000X0.550000X0*%
G04 APERTURE END LIST*
D10*
%TO.C,100nF*%
X93500000Y-88000000D03*
X93500000Y-83000000D03*
%TD*%
%TO.C,1k*%
X92500000Y-56840000D03*
X92500000Y-67000000D03*
%TD*%
D11*
%TO.C,LED*%
X124000000Y-61040000D03*
D12*
X124000000Y-58500000D03*
%TD*%
D10*
%TO.C,330*%
X124000000Y-76015000D03*
X124000000Y-65855000D03*
%TD*%
D13*
%TO.C,ESP32 S3*%
X119645000Y-54300000D03*
X119645000Y-56840000D03*
X119645000Y-59380000D03*
X119645000Y-61920000D03*
X119645000Y-64460000D03*
X119645000Y-67000000D03*
X119645000Y-69540000D03*
X104405000Y-69540000D03*
X104405000Y-67000000D03*
X104405000Y-64460000D03*
X104405000Y-61920000D03*
X104405000Y-59380000D03*
X104405000Y-56840000D03*
D14*
X104405000Y-54300000D03*
%TD*%
D15*
%TO.C,MAX98357*%
X104420000Y-77500000D03*
X106960000Y-77500000D03*
X109500000Y-77500000D03*
X112040000Y-77500000D03*
X114580000Y-77500000D03*
X117120000Y-77500000D03*
X119660000Y-77500000D03*
D16*
X118390000Y-91470000D03*
X105690000Y-91470000D03*
D15*
X113840000Y-90454000D03*
X110340000Y-90454000D03*
%TD*%
D12*
%TO.C,INP441*%
X100000000Y-82920000D03*
D11*
X100000000Y-85460000D03*
X100000000Y-88000000D03*
X100000000Y-90540000D03*
X100000000Y-93080000D03*
%TD*%
D10*
%TO.C,10*%
X93500000Y-70340000D03*
X93500000Y-80500000D03*
%TD*%
D17*
%TO.C,5v in*%
X125000000Y-88000000D03*
D18*
X125000000Y-90000000D03*
%TD*%
D12*
%TO.C,BTN*%
X99907897Y-53827897D03*
D11*
X99907897Y-56367897D03*
%TD*%
D19*
%TO.C,100uF*%
X96500000Y-65500000D03*
D10*
X100000000Y-65500000D03*
%TD*%
M02*
