%TF.GenerationSoftware,KiCad,Pcbnew,10.0.3*%
%TF.CreationDate,2026-05-26T11:12:01-07:00*%
%TF.ProjectId,sh0rtwave_pcb,73683072-7477-4617-9665-5f7063622e6b,rev?*%
%TF.SameCoordinates,Original*%
%TF.FileFunction,Legend,Top*%
%TF.FilePolarity,Positive*%
%FSLAX46Y46*%
G04 Gerber Fmt 4.6, Leading zero omitted, Abs format (unit mm)*
G04 Created by KiCad (PCBNEW 10.0.3) date 2026-05-26 11:12:01*
%MOMM*%
%LPD*%
G01*
G04 APERTURE LIST*
%ADD10C,0.300000*%
%ADD11C,0.150000*%
%ADD12C,0.127000*%
%ADD13C,0.200000*%
%ADD14C,0.120000*%
G04 APERTURE END LIST*
D10*
X101983082Y-77729400D02*
X102125939Y-77800828D01*
X102125939Y-77800828D02*
X102411653Y-77800828D01*
X102411653Y-77800828D02*
X102554510Y-77729400D01*
X102554510Y-77729400D02*
X102625939Y-77586542D01*
X102625939Y-77586542D02*
X102625939Y-77515114D01*
X102625939Y-77515114D02*
X102554510Y-77372257D01*
X102554510Y-77372257D02*
X102411653Y-77300828D01*
X102411653Y-77300828D02*
X102197368Y-77300828D01*
X102197368Y-77300828D02*
X102054510Y-77229400D01*
X102054510Y-77229400D02*
X101983082Y-77086542D01*
X101983082Y-77086542D02*
X101983082Y-77015114D01*
X101983082Y-77015114D02*
X102054510Y-76872257D01*
X102054510Y-76872257D02*
X102197368Y-76800828D01*
X102197368Y-76800828D02*
X102411653Y-76800828D01*
X102411653Y-76800828D02*
X102554510Y-76872257D01*
X103268796Y-77800828D02*
X103268796Y-76300828D01*
X103911654Y-77800828D02*
X103911654Y-77015114D01*
X103911654Y-77015114D02*
X103840225Y-76872257D01*
X103840225Y-76872257D02*
X103697368Y-76800828D01*
X103697368Y-76800828D02*
X103483082Y-76800828D01*
X103483082Y-76800828D02*
X103340225Y-76872257D01*
X103340225Y-76872257D02*
X103268796Y-76943685D01*
X104911654Y-76300828D02*
X105054511Y-76300828D01*
X105054511Y-76300828D02*
X105197368Y-76372257D01*
X105197368Y-76372257D02*
X105268797Y-76443685D01*
X105268797Y-76443685D02*
X105340225Y-76586542D01*
X105340225Y-76586542D02*
X105411654Y-76872257D01*
X105411654Y-76872257D02*
X105411654Y-77229400D01*
X105411654Y-77229400D02*
X105340225Y-77515114D01*
X105340225Y-77515114D02*
X105268797Y-77657971D01*
X105268797Y-77657971D02*
X105197368Y-77729400D01*
X105197368Y-77729400D02*
X105054511Y-77800828D01*
X105054511Y-77800828D02*
X104911654Y-77800828D01*
X104911654Y-77800828D02*
X104768797Y-77729400D01*
X104768797Y-77729400D02*
X104697368Y-77657971D01*
X104697368Y-77657971D02*
X104625939Y-77515114D01*
X104625939Y-77515114D02*
X104554511Y-77229400D01*
X104554511Y-77229400D02*
X104554511Y-76872257D01*
X104554511Y-76872257D02*
X104625939Y-76586542D01*
X104625939Y-76586542D02*
X104697368Y-76443685D01*
X104697368Y-76443685D02*
X104768797Y-76372257D01*
X104768797Y-76372257D02*
X104911654Y-76300828D01*
X106054510Y-77800828D02*
X106054510Y-76800828D01*
X106054510Y-77086542D02*
X106125939Y-76943685D01*
X106125939Y-76943685D02*
X106197368Y-76872257D01*
X106197368Y-76872257D02*
X106340225Y-76800828D01*
X106340225Y-76800828D02*
X106483082Y-76800828D01*
X106768796Y-76800828D02*
X107340224Y-76800828D01*
X106983081Y-76300828D02*
X106983081Y-77586542D01*
X106983081Y-77586542D02*
X107054510Y-77729400D01*
X107054510Y-77729400D02*
X107197367Y-77800828D01*
X107197367Y-77800828D02*
X107340224Y-77800828D01*
X107697367Y-76800828D02*
X107983082Y-77800828D01*
X107983082Y-77800828D02*
X108268796Y-77086542D01*
X108268796Y-77086542D02*
X108554510Y-77800828D01*
X108554510Y-77800828D02*
X108840224Y-76800828D01*
X110054511Y-77800828D02*
X110054511Y-77015114D01*
X110054511Y-77015114D02*
X109983082Y-76872257D01*
X109983082Y-76872257D02*
X109840225Y-76800828D01*
X109840225Y-76800828D02*
X109554511Y-76800828D01*
X109554511Y-76800828D02*
X109411653Y-76872257D01*
X110054511Y-77729400D02*
X109911653Y-77800828D01*
X109911653Y-77800828D02*
X109554511Y-77800828D01*
X109554511Y-77800828D02*
X109411653Y-77729400D01*
X109411653Y-77729400D02*
X109340225Y-77586542D01*
X109340225Y-77586542D02*
X109340225Y-77443685D01*
X109340225Y-77443685D02*
X109411653Y-77300828D01*
X109411653Y-77300828D02*
X109554511Y-77229400D01*
X109554511Y-77229400D02*
X109911653Y-77229400D01*
X109911653Y-77229400D02*
X110054511Y-77157971D01*
X110625939Y-76800828D02*
X110983082Y-77800828D01*
X110983082Y-77800828D02*
X111340225Y-76800828D01*
X112483082Y-77729400D02*
X112340225Y-77800828D01*
X112340225Y-77800828D02*
X112054511Y-77800828D01*
X112054511Y-77800828D02*
X111911653Y-77729400D01*
X111911653Y-77729400D02*
X111840225Y-77586542D01*
X111840225Y-77586542D02*
X111840225Y-77015114D01*
X111840225Y-77015114D02*
X111911653Y-76872257D01*
X111911653Y-76872257D02*
X112054511Y-76800828D01*
X112054511Y-76800828D02*
X112340225Y-76800828D01*
X112340225Y-76800828D02*
X112483082Y-76872257D01*
X112483082Y-76872257D02*
X112554511Y-77015114D01*
X112554511Y-77015114D02*
X112554511Y-77157971D01*
X112554511Y-77157971D02*
X111840225Y-77300828D01*
D11*
X121241541Y-58869819D02*
X121860588Y-58869819D01*
X121860588Y-58869819D02*
X121527255Y-59250771D01*
X121527255Y-59250771D02*
X121670112Y-59250771D01*
X121670112Y-59250771D02*
X121765350Y-59298390D01*
X121765350Y-59298390D02*
X121812969Y-59346009D01*
X121812969Y-59346009D02*
X121860588Y-59441247D01*
X121860588Y-59441247D02*
X121860588Y-59679342D01*
X121860588Y-59679342D02*
X121812969Y-59774580D01*
X121812969Y-59774580D02*
X121765350Y-59822200D01*
X121765350Y-59822200D02*
X121670112Y-59869819D01*
X121670112Y-59869819D02*
X121384398Y-59869819D01*
X121384398Y-59869819D02*
X121289160Y-59822200D01*
X121289160Y-59822200D02*
X121241541Y-59774580D01*
X122289160Y-59774580D02*
X122336779Y-59822200D01*
X122336779Y-59822200D02*
X122289160Y-59869819D01*
X122289160Y-59869819D02*
X122241541Y-59822200D01*
X122241541Y-59822200D02*
X122289160Y-59774580D01*
X122289160Y-59774580D02*
X122289160Y-59869819D01*
X122670112Y-58869819D02*
X123289159Y-58869819D01*
X123289159Y-58869819D02*
X122955826Y-59250771D01*
X122955826Y-59250771D02*
X123098683Y-59250771D01*
X123098683Y-59250771D02*
X123193921Y-59298390D01*
X123193921Y-59298390D02*
X123241540Y-59346009D01*
X123241540Y-59346009D02*
X123289159Y-59441247D01*
X123289159Y-59441247D02*
X123289159Y-59679342D01*
X123289159Y-59679342D02*
X123241540Y-59774580D01*
X123241540Y-59774580D02*
X123193921Y-59822200D01*
X123193921Y-59822200D02*
X123098683Y-59869819D01*
X123098683Y-59869819D02*
X122812969Y-59869819D01*
X122812969Y-59869819D02*
X122717731Y-59822200D01*
X122717731Y-59822200D02*
X122670112Y-59774580D01*
X123622493Y-59203152D02*
X123860588Y-59869819D01*
X123860588Y-59869819D02*
X124098683Y-59203152D01*
X121812969Y-53869819D02*
X121336779Y-53869819D01*
X121336779Y-53869819D02*
X121289160Y-54346009D01*
X121289160Y-54346009D02*
X121336779Y-54298390D01*
X121336779Y-54298390D02*
X121432017Y-54250771D01*
X121432017Y-54250771D02*
X121670112Y-54250771D01*
X121670112Y-54250771D02*
X121765350Y-54298390D01*
X121765350Y-54298390D02*
X121812969Y-54346009D01*
X121812969Y-54346009D02*
X121860588Y-54441247D01*
X121860588Y-54441247D02*
X121860588Y-54679342D01*
X121860588Y-54679342D02*
X121812969Y-54774580D01*
X121812969Y-54774580D02*
X121765350Y-54822200D01*
X121765350Y-54822200D02*
X121670112Y-54869819D01*
X121670112Y-54869819D02*
X121432017Y-54869819D01*
X121432017Y-54869819D02*
X121336779Y-54822200D01*
X121336779Y-54822200D02*
X121289160Y-54774580D01*
X122193922Y-54203152D02*
X122432017Y-54869819D01*
X122432017Y-54869819D02*
X122670112Y-54203152D01*
X104369819Y-88806077D02*
X105369819Y-88472744D01*
X105369819Y-88472744D02*
X104369819Y-88139411D01*
X105369819Y-87806077D02*
X104369819Y-87806077D01*
X105369819Y-87329887D02*
X104369819Y-87329887D01*
X104369819Y-87329887D02*
X105369819Y-86758459D01*
X105369819Y-86758459D02*
X104369819Y-86758459D01*
X106917438Y-88639411D02*
X106869819Y-88734649D01*
X106869819Y-88734649D02*
X106869819Y-88877506D01*
X106869819Y-88877506D02*
X106917438Y-89020363D01*
X106917438Y-89020363D02*
X107012676Y-89115601D01*
X107012676Y-89115601D02*
X107107914Y-89163220D01*
X107107914Y-89163220D02*
X107298390Y-89210839D01*
X107298390Y-89210839D02*
X107441247Y-89210839D01*
X107441247Y-89210839D02*
X107631723Y-89163220D01*
X107631723Y-89163220D02*
X107726961Y-89115601D01*
X107726961Y-89115601D02*
X107822200Y-89020363D01*
X107822200Y-89020363D02*
X107869819Y-88877506D01*
X107869819Y-88877506D02*
X107869819Y-88782268D01*
X107869819Y-88782268D02*
X107822200Y-88639411D01*
X107822200Y-88639411D02*
X107774580Y-88591792D01*
X107774580Y-88591792D02*
X107441247Y-88591792D01*
X107441247Y-88591792D02*
X107441247Y-88782268D01*
X107869819Y-88163220D02*
X106869819Y-88163220D01*
X106869819Y-88163220D02*
X107869819Y-87591792D01*
X107869819Y-87591792D02*
X106869819Y-87591792D01*
X107869819Y-87115601D02*
X106869819Y-87115601D01*
X106869819Y-87115601D02*
X106869819Y-86877506D01*
X106869819Y-86877506D02*
X106917438Y-86734649D01*
X106917438Y-86734649D02*
X107012676Y-86639411D01*
X107012676Y-86639411D02*
X107107914Y-86591792D01*
X107107914Y-86591792D02*
X107298390Y-86544173D01*
X107298390Y-86544173D02*
X107441247Y-86544173D01*
X107441247Y-86544173D02*
X107631723Y-86591792D01*
X107631723Y-86591792D02*
X107726961Y-86639411D01*
X107726961Y-86639411D02*
X107822200Y-86734649D01*
X107822200Y-86734649D02*
X107869819Y-86877506D01*
X107869819Y-86877506D02*
X107869819Y-87115601D01*
X110322200Y-88210839D02*
X110369819Y-88067982D01*
X110369819Y-88067982D02*
X110369819Y-87829887D01*
X110369819Y-87829887D02*
X110322200Y-87734649D01*
X110322200Y-87734649D02*
X110274580Y-87687030D01*
X110274580Y-87687030D02*
X110179342Y-87639411D01*
X110179342Y-87639411D02*
X110084104Y-87639411D01*
X110084104Y-87639411D02*
X109988866Y-87687030D01*
X109988866Y-87687030D02*
X109941247Y-87734649D01*
X109941247Y-87734649D02*
X109893628Y-87829887D01*
X109893628Y-87829887D02*
X109846009Y-88020363D01*
X109846009Y-88020363D02*
X109798390Y-88115601D01*
X109798390Y-88115601D02*
X109750771Y-88163220D01*
X109750771Y-88163220D02*
X109655533Y-88210839D01*
X109655533Y-88210839D02*
X109560295Y-88210839D01*
X109560295Y-88210839D02*
X109465057Y-88163220D01*
X109465057Y-88163220D02*
X109417438Y-88115601D01*
X109417438Y-88115601D02*
X109369819Y-88020363D01*
X109369819Y-88020363D02*
X109369819Y-87782268D01*
X109369819Y-87782268D02*
X109417438Y-87639411D01*
X109369819Y-87353696D02*
X110369819Y-87020363D01*
X110369819Y-87020363D02*
X109369819Y-86687030D01*
X112417438Y-89139411D02*
X112369819Y-89234649D01*
X112369819Y-89234649D02*
X112369819Y-89377506D01*
X112369819Y-89377506D02*
X112417438Y-89520363D01*
X112417438Y-89520363D02*
X112512676Y-89615601D01*
X112512676Y-89615601D02*
X112607914Y-89663220D01*
X112607914Y-89663220D02*
X112798390Y-89710839D01*
X112798390Y-89710839D02*
X112941247Y-89710839D01*
X112941247Y-89710839D02*
X113131723Y-89663220D01*
X113131723Y-89663220D02*
X113226961Y-89615601D01*
X113226961Y-89615601D02*
X113322200Y-89520363D01*
X113322200Y-89520363D02*
X113369819Y-89377506D01*
X113369819Y-89377506D02*
X113369819Y-89282268D01*
X113369819Y-89282268D02*
X113322200Y-89139411D01*
X113322200Y-89139411D02*
X113274580Y-89091792D01*
X113274580Y-89091792D02*
X112941247Y-89091792D01*
X112941247Y-89091792D02*
X112941247Y-89282268D01*
X113084104Y-88710839D02*
X113084104Y-88234649D01*
X113369819Y-88806077D02*
X112369819Y-88472744D01*
X112369819Y-88472744D02*
X113369819Y-88139411D01*
X113369819Y-87806077D02*
X112369819Y-87806077D01*
X113369819Y-87329887D02*
X112369819Y-87329887D01*
X112369819Y-87329887D02*
X113369819Y-86758459D01*
X113369819Y-86758459D02*
X112369819Y-86758459D01*
X115869819Y-88663220D02*
X114869819Y-88663220D01*
X114869819Y-88663220D02*
X114869819Y-88425125D01*
X114869819Y-88425125D02*
X114917438Y-88282268D01*
X114917438Y-88282268D02*
X115012676Y-88187030D01*
X115012676Y-88187030D02*
X115107914Y-88139411D01*
X115107914Y-88139411D02*
X115298390Y-88091792D01*
X115298390Y-88091792D02*
X115441247Y-88091792D01*
X115441247Y-88091792D02*
X115631723Y-88139411D01*
X115631723Y-88139411D02*
X115726961Y-88187030D01*
X115726961Y-88187030D02*
X115822200Y-88282268D01*
X115822200Y-88282268D02*
X115869819Y-88425125D01*
X115869819Y-88425125D02*
X115869819Y-88663220D01*
X115869819Y-87663220D02*
X114869819Y-87663220D01*
X115869819Y-87187030D02*
X114869819Y-87187030D01*
X114869819Y-87187030D02*
X115869819Y-86615602D01*
X115869819Y-86615602D02*
X114869819Y-86615602D01*
X117846009Y-89329887D02*
X117893628Y-89187030D01*
X117893628Y-89187030D02*
X117941247Y-89139411D01*
X117941247Y-89139411D02*
X118036485Y-89091792D01*
X118036485Y-89091792D02*
X118179342Y-89091792D01*
X118179342Y-89091792D02*
X118274580Y-89139411D01*
X118274580Y-89139411D02*
X118322200Y-89187030D01*
X118322200Y-89187030D02*
X118369819Y-89282268D01*
X118369819Y-89282268D02*
X118369819Y-89663220D01*
X118369819Y-89663220D02*
X117369819Y-89663220D01*
X117369819Y-89663220D02*
X117369819Y-89329887D01*
X117369819Y-89329887D02*
X117417438Y-89234649D01*
X117417438Y-89234649D02*
X117465057Y-89187030D01*
X117465057Y-89187030D02*
X117560295Y-89139411D01*
X117560295Y-89139411D02*
X117655533Y-89139411D01*
X117655533Y-89139411D02*
X117750771Y-89187030D01*
X117750771Y-89187030D02*
X117798390Y-89234649D01*
X117798390Y-89234649D02*
X117846009Y-89329887D01*
X117846009Y-89329887D02*
X117846009Y-89663220D01*
X118274580Y-88091792D02*
X118322200Y-88139411D01*
X118322200Y-88139411D02*
X118369819Y-88282268D01*
X118369819Y-88282268D02*
X118369819Y-88377506D01*
X118369819Y-88377506D02*
X118322200Y-88520363D01*
X118322200Y-88520363D02*
X118226961Y-88615601D01*
X118226961Y-88615601D02*
X118131723Y-88663220D01*
X118131723Y-88663220D02*
X117941247Y-88710839D01*
X117941247Y-88710839D02*
X117798390Y-88710839D01*
X117798390Y-88710839D02*
X117607914Y-88663220D01*
X117607914Y-88663220D02*
X117512676Y-88615601D01*
X117512676Y-88615601D02*
X117417438Y-88520363D01*
X117417438Y-88520363D02*
X117369819Y-88377506D01*
X117369819Y-88377506D02*
X117369819Y-88282268D01*
X117369819Y-88282268D02*
X117417438Y-88139411D01*
X117417438Y-88139411D02*
X117465057Y-88091792D01*
X118369819Y-87187030D02*
X118369819Y-87663220D01*
X118369819Y-87663220D02*
X117369819Y-87663220D01*
X118369819Y-86853696D02*
X117369819Y-86853696D01*
X118369819Y-86282268D02*
X117798390Y-86710839D01*
X117369819Y-86282268D02*
X117941247Y-86853696D01*
X120869819Y-88687030D02*
X120869819Y-89163220D01*
X120869819Y-89163220D02*
X119869819Y-89163220D01*
X120869819Y-87782268D02*
X120393628Y-88115601D01*
X120869819Y-88353696D02*
X119869819Y-88353696D01*
X119869819Y-88353696D02*
X119869819Y-87972744D01*
X119869819Y-87972744D02*
X119917438Y-87877506D01*
X119917438Y-87877506D02*
X119965057Y-87829887D01*
X119965057Y-87829887D02*
X120060295Y-87782268D01*
X120060295Y-87782268D02*
X120203152Y-87782268D01*
X120203152Y-87782268D02*
X120298390Y-87829887D01*
X120298390Y-87829887D02*
X120346009Y-87877506D01*
X120346009Y-87877506D02*
X120393628Y-87972744D01*
X120393628Y-87972744D02*
X120393628Y-88353696D01*
X120774580Y-86782268D02*
X120822200Y-86829887D01*
X120822200Y-86829887D02*
X120869819Y-86972744D01*
X120869819Y-86972744D02*
X120869819Y-87067982D01*
X120869819Y-87067982D02*
X120822200Y-87210839D01*
X120822200Y-87210839D02*
X120726961Y-87306077D01*
X120726961Y-87306077D02*
X120631723Y-87353696D01*
X120631723Y-87353696D02*
X120441247Y-87401315D01*
X120441247Y-87401315D02*
X120298390Y-87401315D01*
X120298390Y-87401315D02*
X120107914Y-87353696D01*
X120107914Y-87353696D02*
X120012676Y-87306077D01*
X120012676Y-87306077D02*
X119917438Y-87210839D01*
X119917438Y-87210839D02*
X119869819Y-87067982D01*
X119869819Y-87067982D02*
X119869819Y-86972744D01*
X119869819Y-86972744D02*
X119917438Y-86829887D01*
X119917438Y-86829887D02*
X119965057Y-86782268D01*
X88741541Y-98869819D02*
X88979636Y-99869819D01*
X88979636Y-99869819D02*
X89170112Y-99155533D01*
X89170112Y-99155533D02*
X89360588Y-99869819D01*
X89360588Y-99869819D02*
X89598684Y-98869819D01*
X89932017Y-99822200D02*
X90074874Y-99869819D01*
X90074874Y-99869819D02*
X90312969Y-99869819D01*
X90312969Y-99869819D02*
X90408207Y-99822200D01*
X90408207Y-99822200D02*
X90455826Y-99774580D01*
X90455826Y-99774580D02*
X90503445Y-99679342D01*
X90503445Y-99679342D02*
X90503445Y-99584104D01*
X90503445Y-99584104D02*
X90455826Y-99488866D01*
X90455826Y-99488866D02*
X90408207Y-99441247D01*
X90408207Y-99441247D02*
X90312969Y-99393628D01*
X90312969Y-99393628D02*
X90122493Y-99346009D01*
X90122493Y-99346009D02*
X90027255Y-99298390D01*
X90027255Y-99298390D02*
X89979636Y-99250771D01*
X89979636Y-99250771D02*
X89932017Y-99155533D01*
X89932017Y-99155533D02*
X89932017Y-99060295D01*
X89932017Y-99060295D02*
X89979636Y-98965057D01*
X89979636Y-98965057D02*
X90027255Y-98917438D01*
X90027255Y-98917438D02*
X90122493Y-98869819D01*
X90122493Y-98869819D02*
X90360588Y-98869819D01*
X90360588Y-98869819D02*
X90503445Y-98917438D01*
X88789160Y-97322200D02*
X88932017Y-97369819D01*
X88932017Y-97369819D02*
X89170112Y-97369819D01*
X89170112Y-97369819D02*
X89265350Y-97322200D01*
X89265350Y-97322200D02*
X89312969Y-97274580D01*
X89312969Y-97274580D02*
X89360588Y-97179342D01*
X89360588Y-97179342D02*
X89360588Y-97084104D01*
X89360588Y-97084104D02*
X89312969Y-96988866D01*
X89312969Y-96988866D02*
X89265350Y-96941247D01*
X89265350Y-96941247D02*
X89170112Y-96893628D01*
X89170112Y-96893628D02*
X88979636Y-96846009D01*
X88979636Y-96846009D02*
X88884398Y-96798390D01*
X88884398Y-96798390D02*
X88836779Y-96750771D01*
X88836779Y-96750771D02*
X88789160Y-96655533D01*
X88789160Y-96655533D02*
X88789160Y-96560295D01*
X88789160Y-96560295D02*
X88836779Y-96465057D01*
X88836779Y-96465057D02*
X88884398Y-96417438D01*
X88884398Y-96417438D02*
X88979636Y-96369819D01*
X88979636Y-96369819D02*
X89217731Y-96369819D01*
X89217731Y-96369819D02*
X89360588Y-96417438D01*
X90360588Y-97274580D02*
X90312969Y-97322200D01*
X90312969Y-97322200D02*
X90170112Y-97369819D01*
X90170112Y-97369819D02*
X90074874Y-97369819D01*
X90074874Y-97369819D02*
X89932017Y-97322200D01*
X89932017Y-97322200D02*
X89836779Y-97226961D01*
X89836779Y-97226961D02*
X89789160Y-97131723D01*
X89789160Y-97131723D02*
X89741541Y-96941247D01*
X89741541Y-96941247D02*
X89741541Y-96798390D01*
X89741541Y-96798390D02*
X89789160Y-96607914D01*
X89789160Y-96607914D02*
X89836779Y-96512676D01*
X89836779Y-96512676D02*
X89932017Y-96417438D01*
X89932017Y-96417438D02*
X90074874Y-96369819D01*
X90074874Y-96369819D02*
X90170112Y-96369819D01*
X90170112Y-96369819D02*
X90312969Y-96417438D01*
X90312969Y-96417438D02*
X90360588Y-96465057D01*
X90789160Y-97369819D02*
X90789160Y-96369819D01*
X91360588Y-97369819D02*
X90932017Y-96798390D01*
X91360588Y-96369819D02*
X90789160Y-96941247D01*
X88789160Y-94822200D02*
X88932017Y-94869819D01*
X88932017Y-94869819D02*
X89170112Y-94869819D01*
X89170112Y-94869819D02*
X89265350Y-94822200D01*
X89265350Y-94822200D02*
X89312969Y-94774580D01*
X89312969Y-94774580D02*
X89360588Y-94679342D01*
X89360588Y-94679342D02*
X89360588Y-94584104D01*
X89360588Y-94584104D02*
X89312969Y-94488866D01*
X89312969Y-94488866D02*
X89265350Y-94441247D01*
X89265350Y-94441247D02*
X89170112Y-94393628D01*
X89170112Y-94393628D02*
X88979636Y-94346009D01*
X88979636Y-94346009D02*
X88884398Y-94298390D01*
X88884398Y-94298390D02*
X88836779Y-94250771D01*
X88836779Y-94250771D02*
X88789160Y-94155533D01*
X88789160Y-94155533D02*
X88789160Y-94060295D01*
X88789160Y-94060295D02*
X88836779Y-93965057D01*
X88836779Y-93965057D02*
X88884398Y-93917438D01*
X88884398Y-93917438D02*
X88979636Y-93869819D01*
X88979636Y-93869819D02*
X89217731Y-93869819D01*
X89217731Y-93869819D02*
X89360588Y-93917438D01*
X89789160Y-94869819D02*
X89789160Y-93869819D01*
X89789160Y-93869819D02*
X90027255Y-93869819D01*
X90027255Y-93869819D02*
X90170112Y-93917438D01*
X90170112Y-93917438D02*
X90265350Y-94012676D01*
X90265350Y-94012676D02*
X90312969Y-94107914D01*
X90312969Y-94107914D02*
X90360588Y-94298390D01*
X90360588Y-94298390D02*
X90360588Y-94441247D01*
X90360588Y-94441247D02*
X90312969Y-94631723D01*
X90312969Y-94631723D02*
X90265350Y-94726961D01*
X90265350Y-94726961D02*
X90170112Y-94822200D01*
X90170112Y-94822200D02*
X90027255Y-94869819D01*
X90027255Y-94869819D02*
X89789160Y-94869819D01*
X89360588Y-91417438D02*
X89265350Y-91369819D01*
X89265350Y-91369819D02*
X89122493Y-91369819D01*
X89122493Y-91369819D02*
X88979636Y-91417438D01*
X88979636Y-91417438D02*
X88884398Y-91512676D01*
X88884398Y-91512676D02*
X88836779Y-91607914D01*
X88836779Y-91607914D02*
X88789160Y-91798390D01*
X88789160Y-91798390D02*
X88789160Y-91941247D01*
X88789160Y-91941247D02*
X88836779Y-92131723D01*
X88836779Y-92131723D02*
X88884398Y-92226961D01*
X88884398Y-92226961D02*
X88979636Y-92322200D01*
X88979636Y-92322200D02*
X89122493Y-92369819D01*
X89122493Y-92369819D02*
X89217731Y-92369819D01*
X89217731Y-92369819D02*
X89360588Y-92322200D01*
X89360588Y-92322200D02*
X89408207Y-92274580D01*
X89408207Y-92274580D02*
X89408207Y-91941247D01*
X89408207Y-91941247D02*
X89217731Y-91941247D01*
X89836779Y-92369819D02*
X89836779Y-91369819D01*
X89836779Y-91369819D02*
X90408207Y-92369819D01*
X90408207Y-92369819D02*
X90408207Y-91369819D01*
X90884398Y-92369819D02*
X90884398Y-91369819D01*
X90884398Y-91369819D02*
X91122493Y-91369819D01*
X91122493Y-91369819D02*
X91265350Y-91417438D01*
X91265350Y-91417438D02*
X91360588Y-91512676D01*
X91360588Y-91512676D02*
X91408207Y-91607914D01*
X91408207Y-91607914D02*
X91455826Y-91798390D01*
X91455826Y-91798390D02*
X91455826Y-91941247D01*
X91455826Y-91941247D02*
X91408207Y-92131723D01*
X91408207Y-92131723D02*
X91360588Y-92226961D01*
X91360588Y-92226961D02*
X91265350Y-92322200D01*
X91265350Y-92322200D02*
X91122493Y-92369819D01*
X91122493Y-92369819D02*
X90884398Y-92369819D01*
X88693922Y-88869819D02*
X89027255Y-89869819D01*
X89027255Y-89869819D02*
X89360588Y-88869819D01*
X89693922Y-89869819D02*
X89693922Y-88869819D01*
X89693922Y-88869819D02*
X89932017Y-88869819D01*
X89932017Y-88869819D02*
X90074874Y-88917438D01*
X90074874Y-88917438D02*
X90170112Y-89012676D01*
X90170112Y-89012676D02*
X90217731Y-89107914D01*
X90217731Y-89107914D02*
X90265350Y-89298390D01*
X90265350Y-89298390D02*
X90265350Y-89441247D01*
X90265350Y-89441247D02*
X90217731Y-89631723D01*
X90217731Y-89631723D02*
X90170112Y-89726961D01*
X90170112Y-89726961D02*
X90074874Y-89822200D01*
X90074874Y-89822200D02*
X89932017Y-89869819D01*
X89932017Y-89869819D02*
X89693922Y-89869819D01*
X90693922Y-89869819D02*
X90693922Y-88869819D01*
X90693922Y-88869819D02*
X90932017Y-88869819D01*
X90932017Y-88869819D02*
X91074874Y-88917438D01*
X91074874Y-88917438D02*
X91170112Y-89012676D01*
X91170112Y-89012676D02*
X91217731Y-89107914D01*
X91217731Y-89107914D02*
X91265350Y-89298390D01*
X91265350Y-89298390D02*
X91265350Y-89441247D01*
X91265350Y-89441247D02*
X91217731Y-89631723D01*
X91217731Y-89631723D02*
X91170112Y-89726961D01*
X91170112Y-89726961D02*
X91074874Y-89822200D01*
X91074874Y-89822200D02*
X90932017Y-89869819D01*
X90932017Y-89869819D02*
X90693922Y-89869819D01*
X121860588Y-56417438D02*
X121765350Y-56369819D01*
X121765350Y-56369819D02*
X121622493Y-56369819D01*
X121622493Y-56369819D02*
X121479636Y-56417438D01*
X121479636Y-56417438D02*
X121384398Y-56512676D01*
X121384398Y-56512676D02*
X121336779Y-56607914D01*
X121336779Y-56607914D02*
X121289160Y-56798390D01*
X121289160Y-56798390D02*
X121289160Y-56941247D01*
X121289160Y-56941247D02*
X121336779Y-57131723D01*
X121336779Y-57131723D02*
X121384398Y-57226961D01*
X121384398Y-57226961D02*
X121479636Y-57322200D01*
X121479636Y-57322200D02*
X121622493Y-57369819D01*
X121622493Y-57369819D02*
X121717731Y-57369819D01*
X121717731Y-57369819D02*
X121860588Y-57322200D01*
X121860588Y-57322200D02*
X121908207Y-57274580D01*
X121908207Y-57274580D02*
X121908207Y-56941247D01*
X121908207Y-56941247D02*
X121717731Y-56941247D01*
X122336779Y-57369819D02*
X122336779Y-56369819D01*
X122336779Y-56369819D02*
X122908207Y-57369819D01*
X122908207Y-57369819D02*
X122908207Y-56369819D01*
X123384398Y-57369819D02*
X123384398Y-56369819D01*
X123384398Y-56369819D02*
X123622493Y-56369819D01*
X123622493Y-56369819D02*
X123765350Y-56417438D01*
X123765350Y-56417438D02*
X123860588Y-56512676D01*
X123860588Y-56512676D02*
X123908207Y-56607914D01*
X123908207Y-56607914D02*
X123955826Y-56798390D01*
X123955826Y-56798390D02*
X123955826Y-56941247D01*
X123955826Y-56941247D02*
X123908207Y-57131723D01*
X123908207Y-57131723D02*
X123860588Y-57226961D01*
X123860588Y-57226961D02*
X123765350Y-57322200D01*
X123765350Y-57322200D02*
X123622493Y-57369819D01*
X123622493Y-57369819D02*
X123384398Y-57369819D01*
X103068809Y-48652509D02*
X103402142Y-48652509D01*
X103544999Y-49176319D02*
X103068809Y-49176319D01*
X103068809Y-49176319D02*
X103068809Y-48176319D01*
X103068809Y-48176319D02*
X103544999Y-48176319D01*
X103925952Y-49128700D02*
X104068809Y-49176319D01*
X104068809Y-49176319D02*
X104306904Y-49176319D01*
X104306904Y-49176319D02*
X104402142Y-49128700D01*
X104402142Y-49128700D02*
X104449761Y-49081080D01*
X104449761Y-49081080D02*
X104497380Y-48985842D01*
X104497380Y-48985842D02*
X104497380Y-48890604D01*
X104497380Y-48890604D02*
X104449761Y-48795366D01*
X104449761Y-48795366D02*
X104402142Y-48747747D01*
X104402142Y-48747747D02*
X104306904Y-48700128D01*
X104306904Y-48700128D02*
X104116428Y-48652509D01*
X104116428Y-48652509D02*
X104021190Y-48604890D01*
X104021190Y-48604890D02*
X103973571Y-48557271D01*
X103973571Y-48557271D02*
X103925952Y-48462033D01*
X103925952Y-48462033D02*
X103925952Y-48366795D01*
X103925952Y-48366795D02*
X103973571Y-48271557D01*
X103973571Y-48271557D02*
X104021190Y-48223938D01*
X104021190Y-48223938D02*
X104116428Y-48176319D01*
X104116428Y-48176319D02*
X104354523Y-48176319D01*
X104354523Y-48176319D02*
X104497380Y-48223938D01*
X104925952Y-49176319D02*
X104925952Y-48176319D01*
X104925952Y-48176319D02*
X105306904Y-48176319D01*
X105306904Y-48176319D02*
X105402142Y-48223938D01*
X105402142Y-48223938D02*
X105449761Y-48271557D01*
X105449761Y-48271557D02*
X105497380Y-48366795D01*
X105497380Y-48366795D02*
X105497380Y-48509652D01*
X105497380Y-48509652D02*
X105449761Y-48604890D01*
X105449761Y-48604890D02*
X105402142Y-48652509D01*
X105402142Y-48652509D02*
X105306904Y-48700128D01*
X105306904Y-48700128D02*
X104925952Y-48700128D01*
X105830714Y-48176319D02*
X106449761Y-48176319D01*
X106449761Y-48176319D02*
X106116428Y-48557271D01*
X106116428Y-48557271D02*
X106259285Y-48557271D01*
X106259285Y-48557271D02*
X106354523Y-48604890D01*
X106354523Y-48604890D02*
X106402142Y-48652509D01*
X106402142Y-48652509D02*
X106449761Y-48747747D01*
X106449761Y-48747747D02*
X106449761Y-48985842D01*
X106449761Y-48985842D02*
X106402142Y-49081080D01*
X106402142Y-49081080D02*
X106354523Y-49128700D01*
X106354523Y-49128700D02*
X106259285Y-49176319D01*
X106259285Y-49176319D02*
X105973571Y-49176319D01*
X105973571Y-49176319D02*
X105878333Y-49128700D01*
X105878333Y-49128700D02*
X105830714Y-49081080D01*
X106830714Y-48271557D02*
X106878333Y-48223938D01*
X106878333Y-48223938D02*
X106973571Y-48176319D01*
X106973571Y-48176319D02*
X107211666Y-48176319D01*
X107211666Y-48176319D02*
X107306904Y-48223938D01*
X107306904Y-48223938D02*
X107354523Y-48271557D01*
X107354523Y-48271557D02*
X107402142Y-48366795D01*
X107402142Y-48366795D02*
X107402142Y-48462033D01*
X107402142Y-48462033D02*
X107354523Y-48604890D01*
X107354523Y-48604890D02*
X106783095Y-49176319D01*
X106783095Y-49176319D02*
X107402142Y-49176319D01*
X108545000Y-49128700D02*
X108687857Y-49176319D01*
X108687857Y-49176319D02*
X108925952Y-49176319D01*
X108925952Y-49176319D02*
X109021190Y-49128700D01*
X109021190Y-49128700D02*
X109068809Y-49081080D01*
X109068809Y-49081080D02*
X109116428Y-48985842D01*
X109116428Y-48985842D02*
X109116428Y-48890604D01*
X109116428Y-48890604D02*
X109068809Y-48795366D01*
X109068809Y-48795366D02*
X109021190Y-48747747D01*
X109021190Y-48747747D02*
X108925952Y-48700128D01*
X108925952Y-48700128D02*
X108735476Y-48652509D01*
X108735476Y-48652509D02*
X108640238Y-48604890D01*
X108640238Y-48604890D02*
X108592619Y-48557271D01*
X108592619Y-48557271D02*
X108545000Y-48462033D01*
X108545000Y-48462033D02*
X108545000Y-48366795D01*
X108545000Y-48366795D02*
X108592619Y-48271557D01*
X108592619Y-48271557D02*
X108640238Y-48223938D01*
X108640238Y-48223938D02*
X108735476Y-48176319D01*
X108735476Y-48176319D02*
X108973571Y-48176319D01*
X108973571Y-48176319D02*
X109116428Y-48223938D01*
X109449762Y-48176319D02*
X110068809Y-48176319D01*
X110068809Y-48176319D02*
X109735476Y-48557271D01*
X109735476Y-48557271D02*
X109878333Y-48557271D01*
X109878333Y-48557271D02*
X109973571Y-48604890D01*
X109973571Y-48604890D02*
X110021190Y-48652509D01*
X110021190Y-48652509D02*
X110068809Y-48747747D01*
X110068809Y-48747747D02*
X110068809Y-48985842D01*
X110068809Y-48985842D02*
X110021190Y-49081080D01*
X110021190Y-49081080D02*
X109973571Y-49128700D01*
X109973571Y-49128700D02*
X109878333Y-49176319D01*
X109878333Y-49176319D02*
X109592619Y-49176319D01*
X109592619Y-49176319D02*
X109497381Y-49128700D01*
X109497381Y-49128700D02*
X109449762Y-49081080D01*
X125357142Y-56574819D02*
X124880952Y-56574819D01*
X124880952Y-56574819D02*
X124880952Y-55574819D01*
X125690476Y-56051009D02*
X126023809Y-56051009D01*
X126166666Y-56574819D02*
X125690476Y-56574819D01*
X125690476Y-56574819D02*
X125690476Y-55574819D01*
X125690476Y-55574819D02*
X126166666Y-55574819D01*
X126595238Y-56574819D02*
X126595238Y-55574819D01*
X126595238Y-55574819D02*
X126833333Y-55574819D01*
X126833333Y-55574819D02*
X126976190Y-55622438D01*
X126976190Y-55622438D02*
X127071428Y-55717676D01*
X127071428Y-55717676D02*
X127119047Y-55812914D01*
X127119047Y-55812914D02*
X127166666Y-56003390D01*
X127166666Y-56003390D02*
X127166666Y-56146247D01*
X127166666Y-56146247D02*
X127119047Y-56336723D01*
X127119047Y-56336723D02*
X127071428Y-56431961D01*
X127071428Y-56431961D02*
X126976190Y-56527200D01*
X126976190Y-56527200D02*
X126833333Y-56574819D01*
X126833333Y-56574819D02*
X126595238Y-56574819D01*
X127824819Y-72220713D02*
X127824819Y-71601666D01*
X127824819Y-71601666D02*
X128205771Y-71934999D01*
X128205771Y-71934999D02*
X128205771Y-71792142D01*
X128205771Y-71792142D02*
X128253390Y-71696904D01*
X128253390Y-71696904D02*
X128301009Y-71649285D01*
X128301009Y-71649285D02*
X128396247Y-71601666D01*
X128396247Y-71601666D02*
X128634342Y-71601666D01*
X128634342Y-71601666D02*
X128729580Y-71649285D01*
X128729580Y-71649285D02*
X128777200Y-71696904D01*
X128777200Y-71696904D02*
X128824819Y-71792142D01*
X128824819Y-71792142D02*
X128824819Y-72077856D01*
X128824819Y-72077856D02*
X128777200Y-72173094D01*
X128777200Y-72173094D02*
X128729580Y-72220713D01*
X127824819Y-71268332D02*
X127824819Y-70649285D01*
X127824819Y-70649285D02*
X128205771Y-70982618D01*
X128205771Y-70982618D02*
X128205771Y-70839761D01*
X128205771Y-70839761D02*
X128253390Y-70744523D01*
X128253390Y-70744523D02*
X128301009Y-70696904D01*
X128301009Y-70696904D02*
X128396247Y-70649285D01*
X128396247Y-70649285D02*
X128634342Y-70649285D01*
X128634342Y-70649285D02*
X128729580Y-70696904D01*
X128729580Y-70696904D02*
X128777200Y-70744523D01*
X128777200Y-70744523D02*
X128824819Y-70839761D01*
X128824819Y-70839761D02*
X128824819Y-71125475D01*
X128824819Y-71125475D02*
X128777200Y-71220713D01*
X128777200Y-71220713D02*
X128729580Y-71268332D01*
X127824819Y-70030237D02*
X127824819Y-69934999D01*
X127824819Y-69934999D02*
X127872438Y-69839761D01*
X127872438Y-69839761D02*
X127920057Y-69792142D01*
X127920057Y-69792142D02*
X128015295Y-69744523D01*
X128015295Y-69744523D02*
X128205771Y-69696904D01*
X128205771Y-69696904D02*
X128443866Y-69696904D01*
X128443866Y-69696904D02*
X128634342Y-69744523D01*
X128634342Y-69744523D02*
X128729580Y-69792142D01*
X128729580Y-69792142D02*
X128777200Y-69839761D01*
X128777200Y-69839761D02*
X128824819Y-69934999D01*
X128824819Y-69934999D02*
X128824819Y-70030237D01*
X128824819Y-70030237D02*
X128777200Y-70125475D01*
X128777200Y-70125475D02*
X128729580Y-70173094D01*
X128729580Y-70173094D02*
X128634342Y-70220713D01*
X128634342Y-70220713D02*
X128443866Y-70268332D01*
X128443866Y-70268332D02*
X128205771Y-70268332D01*
X128205771Y-70268332D02*
X128015295Y-70220713D01*
X128015295Y-70220713D02*
X127920057Y-70173094D01*
X127920057Y-70173094D02*
X127872438Y-70125475D01*
X127872438Y-70125475D02*
X127824819Y-70030237D01*
X129354819Y-97833332D02*
X128354819Y-97833332D01*
X128354819Y-97833332D02*
X128354819Y-97452380D01*
X128354819Y-97452380D02*
X128402438Y-97357142D01*
X128402438Y-97357142D02*
X128450057Y-97309523D01*
X128450057Y-97309523D02*
X128545295Y-97261904D01*
X128545295Y-97261904D02*
X128688152Y-97261904D01*
X128688152Y-97261904D02*
X128783390Y-97309523D01*
X128783390Y-97309523D02*
X128831009Y-97357142D01*
X128831009Y-97357142D02*
X128878628Y-97452380D01*
X128878628Y-97452380D02*
X128878628Y-97833332D01*
X128354819Y-96928570D02*
X129354819Y-96690475D01*
X129354819Y-96690475D02*
X128640533Y-96499999D01*
X128640533Y-96499999D02*
X129354819Y-96309523D01*
X129354819Y-96309523D02*
X128354819Y-96071428D01*
X129354819Y-95119047D02*
X128878628Y-95452380D01*
X129354819Y-95690475D02*
X128354819Y-95690475D01*
X128354819Y-95690475D02*
X128354819Y-95309523D01*
X128354819Y-95309523D02*
X128402438Y-95214285D01*
X128402438Y-95214285D02*
X128450057Y-95166666D01*
X128450057Y-95166666D02*
X128545295Y-95119047D01*
X128545295Y-95119047D02*
X128688152Y-95119047D01*
X128688152Y-95119047D02*
X128783390Y-95166666D01*
X128783390Y-95166666D02*
X128831009Y-95214285D01*
X128831009Y-95214285D02*
X128878628Y-95309523D01*
X128878628Y-95309523D02*
X128878628Y-95690475D01*
X89166666Y-50051009D02*
X89309523Y-50098628D01*
X89309523Y-50098628D02*
X89357142Y-50146247D01*
X89357142Y-50146247D02*
X89404761Y-50241485D01*
X89404761Y-50241485D02*
X89404761Y-50384342D01*
X89404761Y-50384342D02*
X89357142Y-50479580D01*
X89357142Y-50479580D02*
X89309523Y-50527200D01*
X89309523Y-50527200D02*
X89214285Y-50574819D01*
X89214285Y-50574819D02*
X88833333Y-50574819D01*
X88833333Y-50574819D02*
X88833333Y-49574819D01*
X88833333Y-49574819D02*
X89166666Y-49574819D01*
X89166666Y-49574819D02*
X89261904Y-49622438D01*
X89261904Y-49622438D02*
X89309523Y-49670057D01*
X89309523Y-49670057D02*
X89357142Y-49765295D01*
X89357142Y-49765295D02*
X89357142Y-49860533D01*
X89357142Y-49860533D02*
X89309523Y-49955771D01*
X89309523Y-49955771D02*
X89261904Y-50003390D01*
X89261904Y-50003390D02*
X89166666Y-50051009D01*
X89166666Y-50051009D02*
X88833333Y-50051009D01*
X89690476Y-49574819D02*
X90261904Y-49574819D01*
X89976190Y-50574819D02*
X89976190Y-49574819D01*
X90595238Y-50574819D02*
X90595238Y-49574819D01*
X90595238Y-49574819D02*
X91166666Y-50574819D01*
X91166666Y-50574819D02*
X91166666Y-49574819D01*
X86061583Y-62729941D02*
X85657522Y-63134002D01*
X85859553Y-62931972D02*
X85152446Y-62224865D01*
X85152446Y-62224865D02*
X85186117Y-62393224D01*
X85186117Y-62393224D02*
X85186117Y-62527911D01*
X85186117Y-62527911D02*
X85152446Y-62628926D01*
X86364629Y-62426895D02*
X85657522Y-61719789D01*
X86162598Y-62090178D02*
X86634003Y-62157521D01*
X86162598Y-61686117D02*
X86162598Y-62224865D01*
X91547619Y-87574819D02*
X91547619Y-86574819D01*
X92023809Y-87574819D02*
X92023809Y-86574819D01*
X92023809Y-86574819D02*
X92595237Y-87574819D01*
X92595237Y-87574819D02*
X92595237Y-86574819D01*
X93071428Y-87574819D02*
X93071428Y-86574819D01*
X93071428Y-86574819D02*
X93452380Y-86574819D01*
X93452380Y-86574819D02*
X93547618Y-86622438D01*
X93547618Y-86622438D02*
X93595237Y-86670057D01*
X93595237Y-86670057D02*
X93642856Y-86765295D01*
X93642856Y-86765295D02*
X93642856Y-86908152D01*
X93642856Y-86908152D02*
X93595237Y-87003390D01*
X93595237Y-87003390D02*
X93547618Y-87051009D01*
X93547618Y-87051009D02*
X93452380Y-87098628D01*
X93452380Y-87098628D02*
X93071428Y-87098628D01*
X94499999Y-86908152D02*
X94499999Y-87574819D01*
X94261904Y-86527200D02*
X94023809Y-87241485D01*
X94023809Y-87241485D02*
X94642856Y-87241485D01*
X95452380Y-86908152D02*
X95452380Y-87574819D01*
X95214285Y-86527200D02*
X94976190Y-87241485D01*
X94976190Y-87241485D02*
X95595237Y-87241485D01*
X96499999Y-87574819D02*
X95928571Y-87574819D01*
X96214285Y-87574819D02*
X96214285Y-86574819D01*
X96214285Y-86574819D02*
X96119047Y-86717676D01*
X96119047Y-86717676D02*
X96023809Y-86812914D01*
X96023809Y-86812914D02*
X95928571Y-86860533D01*
X114905952Y-103014819D02*
X114905952Y-102014819D01*
X114905952Y-102014819D02*
X115239285Y-102729104D01*
X115239285Y-102729104D02*
X115572618Y-102014819D01*
X115572618Y-102014819D02*
X115572618Y-103014819D01*
X116001190Y-102729104D02*
X116477380Y-102729104D01*
X115905952Y-103014819D02*
X116239285Y-102014819D01*
X116239285Y-102014819D02*
X116572618Y-103014819D01*
X116810714Y-102014819D02*
X117477380Y-103014819D01*
X117477380Y-102014819D02*
X116810714Y-103014819D01*
X117905952Y-103014819D02*
X118096428Y-103014819D01*
X118096428Y-103014819D02*
X118191666Y-102967200D01*
X118191666Y-102967200D02*
X118239285Y-102919580D01*
X118239285Y-102919580D02*
X118334523Y-102776723D01*
X118334523Y-102776723D02*
X118382142Y-102586247D01*
X118382142Y-102586247D02*
X118382142Y-102205295D01*
X118382142Y-102205295D02*
X118334523Y-102110057D01*
X118334523Y-102110057D02*
X118286904Y-102062438D01*
X118286904Y-102062438D02*
X118191666Y-102014819D01*
X118191666Y-102014819D02*
X118001190Y-102014819D01*
X118001190Y-102014819D02*
X117905952Y-102062438D01*
X117905952Y-102062438D02*
X117858333Y-102110057D01*
X117858333Y-102110057D02*
X117810714Y-102205295D01*
X117810714Y-102205295D02*
X117810714Y-102443390D01*
X117810714Y-102443390D02*
X117858333Y-102538628D01*
X117858333Y-102538628D02*
X117905952Y-102586247D01*
X117905952Y-102586247D02*
X118001190Y-102633866D01*
X118001190Y-102633866D02*
X118191666Y-102633866D01*
X118191666Y-102633866D02*
X118286904Y-102586247D01*
X118286904Y-102586247D02*
X118334523Y-102538628D01*
X118334523Y-102538628D02*
X118382142Y-102443390D01*
X118953571Y-102443390D02*
X118858333Y-102395771D01*
X118858333Y-102395771D02*
X118810714Y-102348152D01*
X118810714Y-102348152D02*
X118763095Y-102252914D01*
X118763095Y-102252914D02*
X118763095Y-102205295D01*
X118763095Y-102205295D02*
X118810714Y-102110057D01*
X118810714Y-102110057D02*
X118858333Y-102062438D01*
X118858333Y-102062438D02*
X118953571Y-102014819D01*
X118953571Y-102014819D02*
X119144047Y-102014819D01*
X119144047Y-102014819D02*
X119239285Y-102062438D01*
X119239285Y-102062438D02*
X119286904Y-102110057D01*
X119286904Y-102110057D02*
X119334523Y-102205295D01*
X119334523Y-102205295D02*
X119334523Y-102252914D01*
X119334523Y-102252914D02*
X119286904Y-102348152D01*
X119286904Y-102348152D02*
X119239285Y-102395771D01*
X119239285Y-102395771D02*
X119144047Y-102443390D01*
X119144047Y-102443390D02*
X118953571Y-102443390D01*
X118953571Y-102443390D02*
X118858333Y-102491009D01*
X118858333Y-102491009D02*
X118810714Y-102538628D01*
X118810714Y-102538628D02*
X118763095Y-102633866D01*
X118763095Y-102633866D02*
X118763095Y-102824342D01*
X118763095Y-102824342D02*
X118810714Y-102919580D01*
X118810714Y-102919580D02*
X118858333Y-102967200D01*
X118858333Y-102967200D02*
X118953571Y-103014819D01*
X118953571Y-103014819D02*
X119144047Y-103014819D01*
X119144047Y-103014819D02*
X119239285Y-102967200D01*
X119239285Y-102967200D02*
X119286904Y-102919580D01*
X119286904Y-102919580D02*
X119334523Y-102824342D01*
X119334523Y-102824342D02*
X119334523Y-102633866D01*
X119334523Y-102633866D02*
X119286904Y-102538628D01*
X119286904Y-102538628D02*
X119239285Y-102491009D01*
X119239285Y-102491009D02*
X119144047Y-102443390D01*
X119667857Y-102014819D02*
X120286904Y-102014819D01*
X120286904Y-102014819D02*
X119953571Y-102395771D01*
X119953571Y-102395771D02*
X120096428Y-102395771D01*
X120096428Y-102395771D02*
X120191666Y-102443390D01*
X120191666Y-102443390D02*
X120239285Y-102491009D01*
X120239285Y-102491009D02*
X120286904Y-102586247D01*
X120286904Y-102586247D02*
X120286904Y-102824342D01*
X120286904Y-102824342D02*
X120239285Y-102919580D01*
X120239285Y-102919580D02*
X120191666Y-102967200D01*
X120191666Y-102967200D02*
X120096428Y-103014819D01*
X120096428Y-103014819D02*
X119810714Y-103014819D01*
X119810714Y-103014819D02*
X119715476Y-102967200D01*
X119715476Y-102967200D02*
X119667857Y-102919580D01*
X121191666Y-102014819D02*
X120715476Y-102014819D01*
X120715476Y-102014819D02*
X120667857Y-102491009D01*
X120667857Y-102491009D02*
X120715476Y-102443390D01*
X120715476Y-102443390D02*
X120810714Y-102395771D01*
X120810714Y-102395771D02*
X121048809Y-102395771D01*
X121048809Y-102395771D02*
X121144047Y-102443390D01*
X121144047Y-102443390D02*
X121191666Y-102491009D01*
X121191666Y-102491009D02*
X121239285Y-102586247D01*
X121239285Y-102586247D02*
X121239285Y-102824342D01*
X121239285Y-102824342D02*
X121191666Y-102919580D01*
X121191666Y-102919580D02*
X121144047Y-102967200D01*
X121144047Y-102967200D02*
X121048809Y-103014819D01*
X121048809Y-103014819D02*
X120810714Y-103014819D01*
X120810714Y-103014819D02*
X120715476Y-102967200D01*
X120715476Y-102967200D02*
X120667857Y-102919580D01*
X121572619Y-102014819D02*
X122239285Y-102014819D01*
X122239285Y-102014819D02*
X121810714Y-103014819D01*
X89454819Y-81547619D02*
X89454819Y-82119047D01*
X89454819Y-81833333D02*
X88454819Y-81833333D01*
X88454819Y-81833333D02*
X88597676Y-81928571D01*
X88597676Y-81928571D02*
X88692914Y-82023809D01*
X88692914Y-82023809D02*
X88740533Y-82119047D01*
X88454819Y-80928571D02*
X88454819Y-80833333D01*
X88454819Y-80833333D02*
X88502438Y-80738095D01*
X88502438Y-80738095D02*
X88550057Y-80690476D01*
X88550057Y-80690476D02*
X88645295Y-80642857D01*
X88645295Y-80642857D02*
X88835771Y-80595238D01*
X88835771Y-80595238D02*
X89073866Y-80595238D01*
X89073866Y-80595238D02*
X89264342Y-80642857D01*
X89264342Y-80642857D02*
X89359580Y-80690476D01*
X89359580Y-80690476D02*
X89407200Y-80738095D01*
X89407200Y-80738095D02*
X89454819Y-80833333D01*
X89454819Y-80833333D02*
X89454819Y-80928571D01*
X89454819Y-80928571D02*
X89407200Y-81023809D01*
X89407200Y-81023809D02*
X89359580Y-81071428D01*
X89359580Y-81071428D02*
X89264342Y-81119047D01*
X89264342Y-81119047D02*
X89073866Y-81166666D01*
X89073866Y-81166666D02*
X88835771Y-81166666D01*
X88835771Y-81166666D02*
X88645295Y-81119047D01*
X88645295Y-81119047D02*
X88550057Y-81071428D01*
X88550057Y-81071428D02*
X88502438Y-81023809D01*
X88502438Y-81023809D02*
X88454819Y-80928571D01*
X88454819Y-79976190D02*
X88454819Y-79880952D01*
X88454819Y-79880952D02*
X88502438Y-79785714D01*
X88502438Y-79785714D02*
X88550057Y-79738095D01*
X88550057Y-79738095D02*
X88645295Y-79690476D01*
X88645295Y-79690476D02*
X88835771Y-79642857D01*
X88835771Y-79642857D02*
X89073866Y-79642857D01*
X89073866Y-79642857D02*
X89264342Y-79690476D01*
X89264342Y-79690476D02*
X89359580Y-79738095D01*
X89359580Y-79738095D02*
X89407200Y-79785714D01*
X89407200Y-79785714D02*
X89454819Y-79880952D01*
X89454819Y-79880952D02*
X89454819Y-79976190D01*
X89454819Y-79976190D02*
X89407200Y-80071428D01*
X89407200Y-80071428D02*
X89359580Y-80119047D01*
X89359580Y-80119047D02*
X89264342Y-80166666D01*
X89264342Y-80166666D02*
X89073866Y-80214285D01*
X89073866Y-80214285D02*
X88835771Y-80214285D01*
X88835771Y-80214285D02*
X88645295Y-80166666D01*
X88645295Y-80166666D02*
X88550057Y-80119047D01*
X88550057Y-80119047D02*
X88502438Y-80071428D01*
X88502438Y-80071428D02*
X88454819Y-79976190D01*
X88788152Y-79214285D02*
X89454819Y-79214285D01*
X88883390Y-79214285D02*
X88835771Y-79166666D01*
X88835771Y-79166666D02*
X88788152Y-79071428D01*
X88788152Y-79071428D02*
X88788152Y-78928571D01*
X88788152Y-78928571D02*
X88835771Y-78833333D01*
X88835771Y-78833333D02*
X88931009Y-78785714D01*
X88931009Y-78785714D02*
X89454819Y-78785714D01*
X88931009Y-77976190D02*
X88931009Y-78309523D01*
X89454819Y-78309523D02*
X88454819Y-78309523D01*
X88454819Y-78309523D02*
X88454819Y-77833333D01*
X96824819Y-80190476D02*
X96824819Y-80761904D01*
X96824819Y-80476190D02*
X95824819Y-80476190D01*
X95824819Y-80476190D02*
X95967676Y-80571428D01*
X95967676Y-80571428D02*
X96062914Y-80666666D01*
X96062914Y-80666666D02*
X96110533Y-80761904D01*
X95824819Y-79571428D02*
X95824819Y-79476190D01*
X95824819Y-79476190D02*
X95872438Y-79380952D01*
X95872438Y-79380952D02*
X95920057Y-79333333D01*
X95920057Y-79333333D02*
X96015295Y-79285714D01*
X96015295Y-79285714D02*
X96205771Y-79238095D01*
X96205771Y-79238095D02*
X96443866Y-79238095D01*
X96443866Y-79238095D02*
X96634342Y-79285714D01*
X96634342Y-79285714D02*
X96729580Y-79333333D01*
X96729580Y-79333333D02*
X96777200Y-79380952D01*
X96777200Y-79380952D02*
X96824819Y-79476190D01*
X96824819Y-79476190D02*
X96824819Y-79571428D01*
X96824819Y-79571428D02*
X96777200Y-79666666D01*
X96777200Y-79666666D02*
X96729580Y-79714285D01*
X96729580Y-79714285D02*
X96634342Y-79761904D01*
X96634342Y-79761904D02*
X96443866Y-79809523D01*
X96443866Y-79809523D02*
X96205771Y-79809523D01*
X96205771Y-79809523D02*
X96015295Y-79761904D01*
X96015295Y-79761904D02*
X95920057Y-79714285D01*
X95920057Y-79714285D02*
X95872438Y-79666666D01*
X95872438Y-79666666D02*
X95824819Y-79571428D01*
X96202380Y-64204819D02*
X95630952Y-64204819D01*
X95916666Y-64204819D02*
X95916666Y-63204819D01*
X95916666Y-63204819D02*
X95821428Y-63347676D01*
X95821428Y-63347676D02*
X95726190Y-63442914D01*
X95726190Y-63442914D02*
X95630952Y-63490533D01*
X96821428Y-63204819D02*
X96916666Y-63204819D01*
X96916666Y-63204819D02*
X97011904Y-63252438D01*
X97011904Y-63252438D02*
X97059523Y-63300057D01*
X97059523Y-63300057D02*
X97107142Y-63395295D01*
X97107142Y-63395295D02*
X97154761Y-63585771D01*
X97154761Y-63585771D02*
X97154761Y-63823866D01*
X97154761Y-63823866D02*
X97107142Y-64014342D01*
X97107142Y-64014342D02*
X97059523Y-64109580D01*
X97059523Y-64109580D02*
X97011904Y-64157200D01*
X97011904Y-64157200D02*
X96916666Y-64204819D01*
X96916666Y-64204819D02*
X96821428Y-64204819D01*
X96821428Y-64204819D02*
X96726190Y-64157200D01*
X96726190Y-64157200D02*
X96678571Y-64109580D01*
X96678571Y-64109580D02*
X96630952Y-64014342D01*
X96630952Y-64014342D02*
X96583333Y-63823866D01*
X96583333Y-63823866D02*
X96583333Y-63585771D01*
X96583333Y-63585771D02*
X96630952Y-63395295D01*
X96630952Y-63395295D02*
X96678571Y-63300057D01*
X96678571Y-63300057D02*
X96726190Y-63252438D01*
X96726190Y-63252438D02*
X96821428Y-63204819D01*
X97773809Y-63204819D02*
X97869047Y-63204819D01*
X97869047Y-63204819D02*
X97964285Y-63252438D01*
X97964285Y-63252438D02*
X98011904Y-63300057D01*
X98011904Y-63300057D02*
X98059523Y-63395295D01*
X98059523Y-63395295D02*
X98107142Y-63585771D01*
X98107142Y-63585771D02*
X98107142Y-63823866D01*
X98107142Y-63823866D02*
X98059523Y-64014342D01*
X98059523Y-64014342D02*
X98011904Y-64109580D01*
X98011904Y-64109580D02*
X97964285Y-64157200D01*
X97964285Y-64157200D02*
X97869047Y-64204819D01*
X97869047Y-64204819D02*
X97773809Y-64204819D01*
X97773809Y-64204819D02*
X97678571Y-64157200D01*
X97678571Y-64157200D02*
X97630952Y-64109580D01*
X97630952Y-64109580D02*
X97583333Y-64014342D01*
X97583333Y-64014342D02*
X97535714Y-63823866D01*
X97535714Y-63823866D02*
X97535714Y-63585771D01*
X97535714Y-63585771D02*
X97583333Y-63395295D01*
X97583333Y-63395295D02*
X97630952Y-63300057D01*
X97630952Y-63300057D02*
X97678571Y-63252438D01*
X97678571Y-63252438D02*
X97773809Y-63204819D01*
X98964285Y-63538152D02*
X98964285Y-64204819D01*
X98535714Y-63538152D02*
X98535714Y-64061961D01*
X98535714Y-64061961D02*
X98583333Y-64157200D01*
X98583333Y-64157200D02*
X98678571Y-64204819D01*
X98678571Y-64204819D02*
X98821428Y-64204819D01*
X98821428Y-64204819D02*
X98916666Y-64157200D01*
X98916666Y-64157200D02*
X98964285Y-64109580D01*
X99773809Y-63681009D02*
X99440476Y-63681009D01*
X99440476Y-64204819D02*
X99440476Y-63204819D01*
X99440476Y-63204819D02*
X99916666Y-63204819D01*
%TO.C,ESP32 S3*%
D12*
X121010000Y-51379000D02*
X121010000Y-72334000D01*
X103230000Y-72334000D02*
X103230000Y-51379000D01*
X103230000Y-51379000D02*
X121010000Y-51379000D01*
X121010000Y-72334000D02*
X103230000Y-72334000D01*
D13*
X102720000Y-54300000D02*
G75*
G02*
X102520000Y-54300000I-100000J0D01*
G01*
X102520000Y-54300000D02*
G75*
G02*
X102720000Y-54300000I100000J0D01*
G01*
%TO.C,LED*%
D14*
X127380000Y-59770000D02*
X127380000Y-62420000D01*
X124620000Y-62420000D02*
X127380000Y-62420000D01*
X124620000Y-59770000D02*
X127380000Y-59770000D01*
X124620000Y-59770000D02*
X124620000Y-62420000D01*
X124620000Y-58500000D02*
X124620000Y-57120000D01*
X124620000Y-57120000D02*
X126000000Y-57120000D01*
%TO.C,330*%
X126000000Y-66895000D02*
X126000000Y-67665000D01*
X126000000Y-74975000D02*
X126000000Y-74205000D01*
X124630000Y-67665000D02*
X127370000Y-67665000D01*
X127370000Y-74205000D01*
X124630000Y-74205000D01*
X124630000Y-67665000D01*
%TO.C,PWR*%
X128110000Y-93140000D02*
X126860000Y-93140000D01*
X126500000Y-93440000D02*
X126500000Y-94050000D01*
X125200000Y-93440000D02*
X125200000Y-94050000D01*
X127200000Y-94050000D02*
X123700000Y-94050000D01*
X123700000Y-94050000D02*
X123700000Y-98950000D01*
X128110000Y-94390000D02*
X128110000Y-93140000D01*
X128010000Y-94900000D02*
X127810000Y-94900000D01*
X128010000Y-95200000D02*
X128010000Y-94900000D01*
X127910000Y-95200000D02*
X127910000Y-94900000D01*
X127810000Y-95200000D02*
X128010000Y-95200000D01*
X127810000Y-96000000D02*
X127200000Y-96000000D01*
X127200000Y-96000000D02*
X127200000Y-94050000D01*
X124200000Y-96400000D02*
X124200000Y-96600000D01*
X123700000Y-96400000D02*
X124200000Y-96400000D01*
X123700000Y-96500000D02*
X124200000Y-96500000D01*
X124200000Y-96600000D02*
X123700000Y-96600000D01*
X127200000Y-97000000D02*
X127810000Y-97000000D01*
X127200000Y-98950000D02*
X127200000Y-97000000D01*
X123700000Y-98950000D02*
X127200000Y-98950000D01*
X126500000Y-99560000D02*
X126500000Y-98950000D01*
X125200000Y-99560000D02*
X125200000Y-98950000D01*
X123090000Y-93440000D02*
X127810000Y-93440000D01*
X127810000Y-99560000D01*
X123090000Y-99560000D01*
X123090000Y-93440000D01*
%TO.C,BTN*%
X88620000Y-51120000D02*
X90000000Y-51120000D01*
X88620000Y-52500000D02*
X88620000Y-51120000D01*
X88620000Y-53770000D02*
X88620000Y-56420000D01*
X88620000Y-53770000D02*
X91380000Y-53770000D01*
X88620000Y-56420000D02*
X91380000Y-56420000D01*
X91380000Y-53770000D02*
X91380000Y-56420000D01*
%TO.C,1k*%
X84643289Y-66856712D02*
X85187761Y-66312240D01*
X90356712Y-61143289D02*
X89812240Y-61687761D01*
X86156498Y-67280976D02*
X84219025Y-65343503D01*
X88843503Y-60719025D01*
X90780976Y-62656498D01*
X86156498Y-67280976D01*
%TO.C,INP441*%
X92620000Y-88120000D02*
X94000000Y-88120000D01*
X92620000Y-89500000D02*
X92620000Y-88120000D01*
X92620000Y-90770000D02*
X92620000Y-101040000D01*
X92620000Y-90770000D02*
X95380000Y-90770000D01*
X92620000Y-101040000D02*
X95380000Y-101040000D01*
X95380000Y-90770000D02*
X95380000Y-101040000D01*
%TO.C,MAX98357*%
D12*
X121390000Y-82460000D02*
X121390000Y-101510000D01*
X121390000Y-101510000D02*
X103610000Y-101510000D01*
X103610000Y-101510000D02*
X103610000Y-82460000D01*
X103610000Y-82460000D02*
X121390000Y-82460000D01*
D13*
X103090000Y-84960000D02*
G75*
G02*
X102890000Y-84960000I-100000J0D01*
G01*
X102890000Y-84960000D02*
G75*
G02*
X103090000Y-84960000I100000J0D01*
G01*
D12*
X110750000Y-96485000D02*
X110750000Y-95485000D01*
X111250000Y-95985000D02*
X110250000Y-95985000D01*
X113750000Y-95985000D02*
X114750000Y-95985000D01*
%TO.C,100nF*%
D14*
X85130000Y-82620000D02*
X85130000Y-77380000D01*
X85467000Y-82620000D02*
X85130000Y-82620000D01*
X87870000Y-82620000D02*
X87533000Y-82620000D01*
X85130000Y-77380000D02*
X85467000Y-77380000D01*
X87533000Y-77380000D02*
X87870000Y-77380000D01*
X87870000Y-77380000D02*
X87870000Y-82620000D01*
%TO.C,10*%
X94000000Y-75960000D02*
X94000000Y-76730000D01*
X94000000Y-84040000D02*
X94000000Y-83270000D01*
X92630000Y-76730000D02*
X95370000Y-76730000D01*
X95370000Y-83270000D01*
X92630000Y-83270000D01*
X92630000Y-76730000D01*
%TO.C,100uF*%
X93340302Y-66685000D02*
X94140302Y-66685000D01*
X93740302Y-66285000D02*
X93740302Y-67085000D01*
X97750000Y-64920000D02*
X97750000Y-73080000D01*
X97790000Y-64920000D02*
X97790000Y-73080000D01*
X97830000Y-64921000D02*
X97830000Y-73079000D01*
X97870000Y-64922000D02*
X97870000Y-73078000D01*
X97910000Y-64923000D02*
X97910000Y-73077000D01*
X97950000Y-64925000D02*
X97950000Y-73075000D01*
X97990000Y-64927000D02*
X97990000Y-73073000D01*
X98030000Y-64930000D02*
X98030000Y-73070000D01*
X98070000Y-64932000D02*
X98070000Y-73068000D01*
X98110000Y-64936000D02*
X98110000Y-73064000D01*
X98150000Y-64939000D02*
X98150000Y-73061000D01*
X98190000Y-64944000D02*
X98190000Y-73056000D01*
X98230000Y-64948000D02*
X98230000Y-73052000D01*
X98270000Y-64953000D02*
X98270000Y-73047000D01*
X98310000Y-64958000D02*
X98310000Y-73042000D01*
X98350000Y-64964000D02*
X98350000Y-73036000D01*
X98390000Y-64970000D02*
X98390000Y-73030000D01*
X98430000Y-64977000D02*
X98430000Y-73023000D01*
X98470000Y-64983000D02*
X98470000Y-67960000D01*
X98470000Y-70040000D02*
X98470000Y-73017000D01*
X98510000Y-64991000D02*
X98510000Y-67960000D01*
X98510000Y-70040000D02*
X98510000Y-73009000D01*
X98550000Y-64998000D02*
X98550000Y-67960000D01*
X98550000Y-70040000D02*
X98550000Y-73002000D01*
X98590000Y-65007000D02*
X98590000Y-67960000D01*
X98590000Y-70040000D02*
X98590000Y-72993000D01*
X98630000Y-65015000D02*
X98630000Y-67960000D01*
X98630000Y-70040000D02*
X98630000Y-72985000D01*
X98670000Y-65024000D02*
X98670000Y-67960000D01*
X98670000Y-70040000D02*
X98670000Y-72976000D01*
X98710000Y-65033000D02*
X98710000Y-67960000D01*
X98710000Y-70040000D02*
X98710000Y-72967000D01*
X98750000Y-65043000D02*
X98750000Y-67960000D01*
X98750000Y-70040000D02*
X98750000Y-72957000D01*
X98790000Y-65053000D02*
X98790000Y-67960000D01*
X98790000Y-70040000D02*
X98790000Y-72947000D01*
X98830000Y-65064000D02*
X98830000Y-67960000D01*
X98830000Y-70040000D02*
X98830000Y-72936000D01*
X98870000Y-65075000D02*
X98870000Y-67960000D01*
X98870000Y-70040000D02*
X98870000Y-72925000D01*
X98910000Y-65087000D02*
X98910000Y-67960000D01*
X98910000Y-70040000D02*
X98910000Y-72913000D01*
X98950000Y-65099000D02*
X98950000Y-67960000D01*
X98950000Y-70040000D02*
X98950000Y-72901000D01*
X98990000Y-65111000D02*
X98990000Y-67960000D01*
X98990000Y-70040000D02*
X98990000Y-72889000D01*
X99030000Y-65124000D02*
X99030000Y-67960000D01*
X99030000Y-70040000D02*
X99030000Y-72876000D01*
X99070000Y-65137000D02*
X99070000Y-67960000D01*
X99070000Y-70040000D02*
X99070000Y-72863000D01*
X99110000Y-65151000D02*
X99110000Y-67960000D01*
X99110000Y-70040000D02*
X99110000Y-72849000D01*
X99150000Y-65165000D02*
X99150000Y-67960000D01*
X99150000Y-70040000D02*
X99150000Y-72835000D01*
X99190000Y-65180000D02*
X99190000Y-67960000D01*
X99190000Y-70040000D02*
X99190000Y-72820000D01*
X99230000Y-65195000D02*
X99230000Y-67960000D01*
X99230000Y-70040000D02*
X99230000Y-72805000D01*
X99270000Y-65211000D02*
X99270000Y-67960000D01*
X99270000Y-70040000D02*
X99270000Y-72789000D01*
X99310000Y-65227000D02*
X99310000Y-67960000D01*
X99310000Y-70040000D02*
X99310000Y-72773000D01*
X99350000Y-65243000D02*
X99350000Y-67960000D01*
X99350000Y-70040000D02*
X99350000Y-72757000D01*
X99390000Y-65260000D02*
X99390000Y-67960000D01*
X99390000Y-70040000D02*
X99390000Y-72740000D01*
X99430000Y-65278000D02*
X99430000Y-67960000D01*
X99430000Y-70040000D02*
X99430000Y-72722000D01*
X99470000Y-65296000D02*
X99470000Y-67960000D01*
X99470000Y-70040000D02*
X99470000Y-72704000D01*
X99510000Y-65315000D02*
X99510000Y-67960000D01*
X99510000Y-70040000D02*
X99510000Y-72685000D01*
X99550000Y-65334000D02*
X99550000Y-67960000D01*
X99550000Y-70040000D02*
X99550000Y-72666000D01*
X99590000Y-65354000D02*
X99590000Y-67960000D01*
X99590000Y-70040000D02*
X99590000Y-72646000D01*
X99630000Y-65374000D02*
X99630000Y-67960000D01*
X99630000Y-70040000D02*
X99630000Y-72626000D01*
X99670000Y-65395000D02*
X99670000Y-67960000D01*
X99670000Y-70040000D02*
X99670000Y-72605000D01*
X99710000Y-65416000D02*
X99710000Y-67960000D01*
X99710000Y-70040000D02*
X99710000Y-72584000D01*
X99750000Y-65438000D02*
X99750000Y-67960000D01*
X99750000Y-70040000D02*
X99750000Y-72562000D01*
X99790000Y-65461000D02*
X99790000Y-67960000D01*
X99790000Y-70040000D02*
X99790000Y-72539000D01*
X99830000Y-65484000D02*
X99830000Y-67960000D01*
X99830000Y-70040000D02*
X99830000Y-72516000D01*
X99870000Y-65507000D02*
X99870000Y-67960000D01*
X99870000Y-70040000D02*
X99870000Y-72493000D01*
X99910000Y-65532000D02*
X99910000Y-67960000D01*
X99910000Y-70040000D02*
X99910000Y-72468000D01*
X99950000Y-65557000D02*
X99950000Y-67960000D01*
X99950000Y-70040000D02*
X99950000Y-72443000D01*
X99990000Y-65582000D02*
X99990000Y-67960000D01*
X99990000Y-70040000D02*
X99990000Y-72418000D01*
X100030000Y-65608000D02*
X100030000Y-67960000D01*
X100030000Y-70040000D02*
X100030000Y-72392000D01*
X100070000Y-65635000D02*
X100070000Y-67960000D01*
X100070000Y-70040000D02*
X100070000Y-72365000D01*
X100110000Y-65663000D02*
X100110000Y-67960000D01*
X100110000Y-70040000D02*
X100110000Y-72337000D01*
X100150000Y-65691000D02*
X100150000Y-67960000D01*
X100150000Y-70040000D02*
X100150000Y-72309000D01*
X100190000Y-65720000D02*
X100190000Y-67960000D01*
X100190000Y-70040000D02*
X100190000Y-72280000D01*
X100230000Y-65750000D02*
X100230000Y-67960000D01*
X100230000Y-70040000D02*
X100230000Y-72250000D01*
X100270000Y-65781000D02*
X100270000Y-67960000D01*
X100270000Y-70040000D02*
X100270000Y-72219000D01*
X100310000Y-65812000D02*
X100310000Y-67960000D01*
X100310000Y-70040000D02*
X100310000Y-72188000D01*
X100350000Y-65844000D02*
X100350000Y-67960000D01*
X100350000Y-70040000D02*
X100350000Y-72156000D01*
X100390000Y-65877000D02*
X100390000Y-67960000D01*
X100390000Y-70040000D02*
X100390000Y-72123000D01*
X100430000Y-65911000D02*
X100430000Y-67960000D01*
X100430000Y-70040000D02*
X100430000Y-72089000D01*
X100470000Y-65945000D02*
X100470000Y-67960000D01*
X100470000Y-70040000D02*
X100470000Y-72055000D01*
X100510000Y-65981000D02*
X100510000Y-67960000D01*
X100510000Y-70040000D02*
X100510000Y-72019000D01*
X100550000Y-66018000D02*
X100550000Y-71982000D01*
X100590000Y-66055000D02*
X100590000Y-71945000D01*
X100630000Y-66094000D02*
X100630000Y-71906000D01*
X100670000Y-66133000D02*
X100670000Y-71867000D01*
X100710000Y-66174000D02*
X100710000Y-71826000D01*
X100750000Y-66216000D02*
X100750000Y-71784000D01*
X100790000Y-66259000D02*
X100790000Y-71741000D01*
X100830000Y-66304000D02*
X100830000Y-71696000D01*
X100870000Y-66349000D02*
X100870000Y-71651000D01*
X100910000Y-66396000D02*
X100910000Y-71604000D01*
X100950000Y-66445000D02*
X100950000Y-71555000D01*
X100990000Y-66495000D02*
X100990000Y-71505000D01*
X101030000Y-66547000D02*
X101030000Y-71453000D01*
X101070000Y-66600000D02*
X101070000Y-71400000D01*
X101110000Y-66656000D02*
X101110000Y-71344000D01*
X101150000Y-66713000D02*
X101150000Y-71287000D01*
X101190000Y-66773000D02*
X101190000Y-71227000D01*
X101230000Y-66835000D02*
X101230000Y-71165000D01*
X101270000Y-66899000D02*
X101270000Y-71101000D01*
X101310000Y-66966000D02*
X101310000Y-71034000D01*
X101350000Y-67036000D02*
X101350000Y-70964000D01*
X101390000Y-67110000D02*
X101390000Y-70890000D01*
X101430000Y-67187000D02*
X101430000Y-70813000D01*
X101470000Y-67269000D02*
X101470000Y-70731000D01*
X101510000Y-67356000D02*
X101510000Y-70644000D01*
X101550000Y-67448000D02*
X101550000Y-70552000D01*
X101590000Y-67547000D02*
X101590000Y-70453000D01*
X101630000Y-67654000D02*
X101630000Y-70346000D01*
X101670000Y-67772000D02*
X101670000Y-70228000D01*
X101710000Y-67903000D02*
X101710000Y-70097000D01*
X101750000Y-68053000D02*
X101750000Y-69947000D01*
X101790000Y-68232000D02*
X101790000Y-69768000D01*
X101830000Y-68467000D02*
X101830000Y-69533000D01*
X101870000Y-69000000D02*
G75*
G02*
X93630000Y-69000000I-4120000J0D01*
G01*
X93630000Y-69000000D02*
G75*
G02*
X101870000Y-69000000I4120000J0D01*
G01*
%TD*%
M02*
